SplineFontDB: 3.2
FontName: FdSymbolA-Bold
FullName: FdSymbolA-Bold
FamilyName: FdSymbolA
Weight: Bold
Copyright: Copyright (c) 2011-2025, Michael Ummels. This Font Software is licensed under the SIL Open Font License, Version 1.1.
Version: 1.010
ItalicAngle: 0
UnderlinePosition: -100
UnderlineWidth: 50
Ascent: 800
Descent: 200
InvalidEm: 0
LayerCount: 2
Layer: 0 0 "Back" 1
Layer: 1 0 "Fore" 0
OS2Version: 0
OS2_WeightWidthSlopeOnly: 0
OS2_UseTypoMetrics: 0
CreationTime: 1739799029
ModificationTime: 1739799029
OS2TypoAscent: 0
OS2TypoAOffset: 1
OS2TypoDescent: 0
OS2TypoDOffset: 1
OS2TypoLinegap: 0
OS2WinAscent: 0
OS2WinAOffset: 1
OS2WinDescent: 0
OS2WinDOffset: 1
HheadAscent: 0
HheadAOffset: 1
HheadDescent: 0
HheadDOffset: 1
OS2Vendor: 'PfEd'
DEI: 91125
Encoding: Custom
UnicodeInterp: none
NameList: AGL For New Fonts
DisplaySize: -48
AntiAlias: 1
FitToEm: 0
BeginPrivate: 2
BlueValues 31 [-10 0 546 556 707 717 754 764]
OtherBlues 11 [-230 -220]
EndPrivate
BeginChars: 256 204

StartChar: dotmath
Encoding: 0 8901 0
Width: 392
Flags: HW
HStem: 194 212<154.05 237.95>
VStem: 90 212<258.05 341.95>
LayerCount: 2
Fore
SplineSet
302 300 m 0
 302 279 279 255 260 236 c 0
 241 217 217 194 196 194 c 0
 175 194 151 217 132 236 c 0
 113 255 90 279 90 300 c 0
 90 321 113 345 132 364 c 0
 151 383 175 406 196 406 c 0
 217 406 241 383 260 364 c 0
 279 345 302 321 302 300 c 0
EndSplineSet
EndChar

StartChar: sym000
Encoding: 1 -1 1
Width: 803
Flags: HW
HStem: 194 212<154.05 237.95 565.05 648.95>
VStem: 90 212<258.05 341.95> 501 212<258.05 341.95>
LayerCount: 2
Fore
SplineSet
302 300 m 0
 302 279 279 255 260 236 c 0
 241 217 217 194 196 194 c 0
 175 194 151 217 132 236 c 0
 113 255 90 279 90 300 c 0
 90 321 113 345 132 364 c 0
 151 383 175 406 196 406 c 0
 217 406 241 383 260 364 c 0
 279 345 302 321 302 300 c 0
713 300 m 0
 713 279 690 255 671 236 c 0
 652 217 628 194 607 194 c 0
 586 194 562 217 543 236 c 0
 524 255 501 279 501 300 c 0
 501 321 524 345 543 364 c 0
 562 383 586 406 607 406 c 0
 628 406 652 383 671 364 c 0
 690 345 713 321 713 300 c 0
EndSplineSet
EndChar

StartChar: uni2236
Encoding: 2 8758 2
Width: 392
Flags: HW
HStem: -11 211<154.05 237.95> 400 212<154.05 237.95>
VStem: 90 212<52.8021 136.244 463.802 547.244>
LayerCount: 2
Fore
SplineSet
302 95 m 0
 302 73 279 50 260 31 c 0
 241 12 217 -11 196 -11 c 0
 175 -11 151 12 132 31 c 0
 113 50 90 73 90 95 c 0
 90 116 113 139 132 158 c 0
 151 177 175 200 196 200 c 0
 217 200 241 177 260 158 c 0
 279 139 302 116 302 95 c 0
302 506 m 0
 302 484 279 461 260 442 c 0
 241 423 217 400 196 400 c 0
 175 400 151 423 132 442 c 0
 113 461 90 484 90 506 c 0
 90 527 113 550 132 569 c 0
 151 588 175 612 196 612 c 0
 217 612 241 588 260 569 c 0
 279 550 302 527 302 506 c 0
EndSplineSet
EndChar

StartChar: sym001
Encoding: 3 -1 3
Width: 770
Flags: HW
HStem: 49 212<198.05 281.95> 339 212<488.802 572.244>
VStem: 134 212<112.802 196.244> 425 212<403.756 487.198>
LayerCount: 2
Fore
SplineSet
346 155 m 0
 346 133 322 110 304 91 c 0
 285 72 261 49 240 49 c 0
 219 49 195 72 176 91 c 0
 157 110 134 133 134 155 c 0
 134 176 157 199 176 218 c 0
 195 237 219 261 240 261 c 0
 261 261 285 237 304 218 c 0
 322 199 346 176 346 155 c 0
637 445 m 0
 637 424 613 401 594 382 c 0
 575 363 552 339 531 339 c 0
 509 339 486 363 467 382 c 0
 448 401 425 424 425 445 c 0
 425 467 448 490 467 509 c 0
 486 528 509 551 531 551 c 0
 552 551 575 528 594 509 c 0
 613 490 637 467 637 445 c 0
EndSplineSet
EndChar

StartChar: sym002
Encoding: 4 -1 4
Width: 770
Flags: HW
HStem: 49 212<488.802 572.244> 339 212<198.05 281.95>
VStem: 134 212<403.756 487.198> 425 212<112.802 196.244>
LayerCount: 2
Fore
SplineSet
637 155 m 0
 637 133 613 110 594 91 c 0
 575 72 552 49 531 49 c 0
 509 49 486 72 467 91 c 0
 448 110 425 133 425 155 c 0
 425 176 448 199 467 218 c 0
 486 237 509 261 531 261 c 0
 552 261 575 237 594 218 c 0
 613 199 637 176 637 155 c 0
346 445 m 0
 346 424 322 401 304 382 c 0
 285 363 261 339 240 339 c 0
 219 339 195 363 176 382 c 0
 157 401 134 424 134 445 c 0
 134 467 157 490 176 509 c 0
 195 528 219 551 240 551 c 0
 261 551 285 528 304 509 c 0
 322 490 346 467 346 445 c 0
EndSplineSet
EndChar

StartChar: uni22EF
Encoding: 5 8943 5
Width: 1214
Flags: HW
HStem: 194 212<154.05 237.95 565.05 648.95 976.05 1059.95>
VStem: 90 212<258.05 341.95> 501 212<258.05 341.95> 912 212<258.05 341.95>
CounterMasks: 1 70
LayerCount: 2
Fore
SplineSet
302 300 m 0
 302 279 279 255 260 236 c 0
 241 217 217 194 196 194 c 0
 175 194 151 217 132 236 c 0
 113 255 90 279 90 300 c 0
 90 321 113 345 132 364 c 0
 151 383 175 406 196 406 c 0
 217 406 241 383 260 364 c 0
 279 345 302 321 302 300 c 0
713 300 m 0
 713 279 690 255 671 236 c 0
 652 217 628 194 607 194 c 0
 586 194 562 217 543 236 c 0
 524 255 501 279 501 300 c 0
 501 321 524 345 543 364 c 0
 562 383 586 406 607 406 c 0
 628 406 652 383 671 364 c 0
 690 345 713 321 713 300 c 0
1124 300 m 0
 1124 279 1101 255 1082 236 c 0
 1063 217 1039 194 1018 194 c 0
 997 194 973 217 954 236 c 0
 935 255 912 279 912 300 c 0
 912 321 935 345 954 364 c 0
 973 383 997 406 1018 406 c 0
 1039 406 1063 383 1082 364 c 0
 1101 345 1124 321 1124 300 c 0
EndSplineSet
EndChar

StartChar: uni22EE
Encoding: 6 8942 6
Width: 392
Flags: HW
HStem: -217 212<154.05 237.95> 194 212<154.05 237.95> 605 212<154.05 237.95>
VStem: 90 212<-152.95 -69.0503 258.05 341.95 669.05 752.95>
CounterMasks: 1 e0
LayerCount: 2
Fore
SplineSet
302 -111 m 0
 302 -132 279 -156 260 -175 c 0
 241 -194 217 -217 196 -217 c 0
 175 -217 151 -194 132 -175 c 0
 113 -156 90 -132 90 -111 c 0
 90 -90 113 -66 132 -47 c 0
 151 -28 175 -5 196 -5 c 0
 217 -5 241 -28 260 -47 c 0
 279 -66 302 -90 302 -111 c 0
302 300 m 0
 302 279 279 255 260 236 c 0
 241 217 217 194 196 194 c 0
 175 194 151 217 132 236 c 0
 113 255 90 279 90 300 c 0
 90 321 113 345 132 364 c 0
 151 383 175 406 196 406 c 0
 217 406 241 383 260 364 c 0
 279 345 302 321 302 300 c 0
302 711 m 0
 302 690 279 666 260 647 c 0
 241 628 217 605 196 605 c 0
 175 605 151 628 132 647 c 0
 113 666 90 690 90 711 c 0
 90 732 113 756 132 775 c 0
 151 794 175 817 196 817 c 0
 217 817 241 794 260 775 c 0
 279 756 302 732 302 711 c 0
EndSplineSet
EndChar

StartChar: uni22F0
Encoding: 7 8944 7
Width: 1061
Flags: HW
HStem: -97 212<198.05 281.95> 194 212<488.802 572.244> 485 212<779.313 862.95>
VStem: 134 212<-32.2443 51.1979> 425 212<258.05 341.95> 715 212<548.802 632.244>
CounterMasks: 1 e0
LayerCount: 2
Fore
SplineSet
346 9 m 0
 346 -12 322 -35 304 -54 c 0
 285 -73 261 -97 240 -97 c 0
 219 -97 195 -73 176 -54 c 0
 157 -35 134 -12 134 9 c 0
 134 31 157 54 176 73 c 0
 195 92 219 115 240 115 c 0
 261 115 285 92 304 73 c 0
 322 54 346 31 346 9 c 0
637 300 m 0
 637 279 613 255 594 236 c 0
 575 217 552 194 531 194 c 0
 509 194 486 217 467 236 c 0
 448 255 425 279 425 300 c 0
 425 321 448 345 467 364 c 0
 486 383 509 406 531 406 c 0
 552 406 575 383 594 364 c 0
 613 345 637 321 637 300 c 0
927 591 m 0
 927 569 904 546 885 527 c 0
 866 508 842 485 821 485 c 0
 800 485 776 508 758 527 c 0
 739 546 715 569 715 591 c 0
 715 612 739 635 758 654 c 0
 776 673 800 697 821 697 c 0
 842 697 866 673 885 654 c 0
 904 635 927 612 927 591 c 0
EndSplineSet
EndChar

StartChar: uni22F1
Encoding: 8 8945 8
Width: 1061
Flags: HW
HStem: -97 212<779.313 862.95> 194 212<488.802 572.244> 485 212<198.05 281.95>
VStem: 134 212<548.802 632.244> 425 212<258.05 341.95> 715 212<-32.2443 51.1979>
CounterMasks: 1 e0
LayerCount: 2
Fore
SplineSet
927 9 m 0
 927 -12 904 -35 885 -54 c 0
 866 -73 842 -97 821 -97 c 0
 800 -97 776 -73 758 -54 c 0
 739 -35 715 -12 715 9 c 0
 715 31 739 54 758 73 c 0
 776 92 800 115 821 115 c 0
 842 115 866 92 885 73 c 0
 904 54 927 31 927 9 c 0
637 300 m 0
 637 279 613 255 594 236 c 0
 575 217 552 194 531 194 c 0
 509 194 486 217 467 236 c 0
 448 255 425 279 425 300 c 0
 425 321 448 345 467 364 c 0
 486 383 509 406 531 406 c 0
 552 406 575 383 594 364 c 0
 613 345 637 321 637 300 c 0
346 591 m 0
 346 569 322 546 304 527 c 0
 285 508 261 485 240 485 c 0
 219 485 195 508 176 527 c 0
 157 546 134 569 134 591 c 0
 134 612 157 635 176 654 c 0
 195 673 219 697 240 697 c 0
 261 697 285 673 304 654 c 0
 322 635 346 612 346 591 c 0
EndSplineSet
EndChar

StartChar: sym003
Encoding: 9 -1 9
Width: 720
Flags: HW
HStem: 32 212<178.05 261.95> 194 212<458.05 541.95> 356 212<178.05 261.95>
VStem: 114 212<96.7557 180.198 419.802 503.244> 394 212<258.05 341.95>
LayerCount: 2
Fore
SplineSet
606 300 m 0x58
 606 279 582 255 564 236 c 0
 545 217 521 194 500 194 c 0
 479 194 455 217 436 236 c 0
 417 255 394 279 394 300 c 0
 394 321 417 345 436 364 c 0
 455 383 479 406 500 406 c 0
 521 406 545 383 564 364 c 0
 582 345 606 321 606 300 c 0x58
326 462 m 0
 326 440 303 417 284 398 c 0
 265 379 241 356 220 356 c 0
 199 356 175 379 156 398 c 0
 138 417 114 440 114 462 c 0
 114 483 138 506 156 525 c 0
 175 544 199 568 220 568 c 0x38
 241 568 265 544 284 525 c 0
 303 506 326 483 326 462 c 0
326 138 m 0
 326 117 303 94 284 75 c 0
 265 56 241 32 220 32 c 0
 199 32 175 56 156 75 c 0
 138 94 114 117 114 138 c 0
 114 160 138 183 156 202 c 0
 175 221 199 244 220 244 c 0x98
 241 244 265 221 284 202 c 0
 303 183 326 160 326 138 c 0
EndSplineSet
EndChar

StartChar: therefore
Encoding: 10 8756 10
Width: 720
Flags: HW
HStem: 54 212<156.756 240.198 479.802 563.244> 334 212<318.05 401.95>
VStem: 92 212<118.05 201.95> 254 212<398.05 481.95> 416 212<118.05 201.95>
LayerCount: 2
Fore
SplineSet
254 440 m 0xd0
 254 470 330 546 360 546 c 0
 381 546 405 522 424 504 c 0
 443 485 466 461 466 440 c 0
 466 419 443 395 424 376 c 0
 405 357 381 334 360 334 c 0
 339 334 315 357 296 376 c 0
 278 395 254 419 254 440 c 0xd0
304 160 m 0xe0
 304 139 281 115 262 96 c 0
 243 78 220 54 198 54 c 0
 177 54 154 78 135 96 c 0
 116 115 92 139 92 160 c 0
 92 181 116 205 135 224 c 0
 154 243 177 266 198 266 c 0
 220 266 243 243 262 224 c 0
 281 205 304 181 304 160 c 0xe0
628 160 m 0xc8
 628 139 604 115 585 96 c 0
 566 78 543 54 522 54 c 0
 500 54 477 78 458 96 c 0
 439 115 416 139 416 160 c 0
 416 181 439 205 458 224 c 0
 477 243 500 266 522 266 c 0
 543 266 566 243 585 224 c 0
 604 205 628 181 628 160 c 0xc8
EndSplineSet
EndChar

StartChar: sym004
Encoding: 11 -1 11
Width: 720
Flags: HW
HStem: 32 212<458.05 541.95> 194 212<178.05 261.95> 356 212<458.05 541.95>
VStem: 114 212<258.05 341.95> 394 212<96.7557 180.198 419.802 503.244>
LayerCount: 2
Fore
SplineSet
326 300 m 0x58
 326 279 303 255 284 236 c 0
 265 217 241 194 220 194 c 0
 199 194 175 217 156 236 c 0
 138 255 114 279 114 300 c 0
 114 321 138 345 156 364 c 0
 175 383 199 406 220 406 c 0
 241 406 265 383 284 364 c 0
 303 345 326 321 326 300 c 0x58
606 138 m 0
 606 117 582 94 564 75 c 0
 545 56 521 32 500 32 c 0
 479 32 455 56 436 75 c 0
 417 94 394 117 394 138 c 0
 394 160 417 183 436 202 c 0
 455 221 479 244 500 244 c 0x98
 521 244 545 221 564 202 c 0
 582 183 606 160 606 138 c 0
606 462 m 0
 606 440 582 417 564 398 c 0
 545 379 521 356 500 356 c 0
 479 356 455 379 436 398 c 0
 417 417 394 440 394 462 c 0
 394 483 417 506 436 525 c 0
 455 544 479 568 500 568 c 0x38
 521 568 545 544 564 525 c 0
 582 506 606 483 606 462 c 0
EndSplineSet
EndChar

StartChar: uni2235
Encoding: 12 8757 12
Width: 720
Flags: HW
HStem: 54 212<318.05 401.95> 334 212<156.756 240.198 479.802 563.244>
VStem: 92 212<398.05 481.95> 254 212<118.05 201.95> 416 212<398.05 481.95>
LayerCount: 2
Fore
SplineSet
360 54 m 0xd0
 330 54 254 130 254 160 c 0
 254 181 278 205 296 224 c 0
 315 243 339 266 360 266 c 0
 381 266 405 243 424 224 c 0
 443 205 466 181 466 160 c 0
 466 139 443 115 424 96 c 0
 405 78 381 54 360 54 c 0xd0
628 440 m 0xc8
 628 419 604 395 585 376 c 0
 566 357 543 334 522 334 c 0
 500 334 477 357 458 376 c 0
 439 395 416 419 416 440 c 0
 416 461 439 485 458 504 c 0
 477 522 500 546 522 546 c 0
 543 546 566 522 585 504 c 0
 604 485 628 461 628 440 c 0xc8
304 440 m 0xe0
 304 419 281 395 262 376 c 0
 243 357 220 334 198 334 c 0
 177 334 154 357 135 376 c 0
 116 395 92 419 92 440 c 0
 92 461 116 485 135 504 c 0
 154 522 177 546 198 546 c 0
 220 546 243 522 262 504 c 0
 281 485 304 461 304 440 c 0xe0
EndSplineSet
EndChar

StartChar: uni2237
Encoding: 13 8759 13
Width: 720
Flags: HW
HStem: 30 212<154.05 237.95 482.05 565.95> 358 212<154.05 237.95 482.05 565.95>
VStem: 90 212<94.0503 177.95 422.05 505.95> 418 212<94.0503 177.95 422.05 505.95>
LayerCount: 2
Fore
SplineSet
524 358 m 0
 494 358 418 434 418 464 c 0
 418 485 442 509 460 528 c 0
 479 547 503 570 524 570 c 0
 545 570 569 547 588 528 c 0
 607 509 630 485 630 464 c 0
 630 443 607 419 588 400 c 0
 569 382 545 358 524 358 c 0
302 464 m 0
 302 443 279 419 260 400 c 0
 241 382 217 358 196 358 c 0
 175 358 151 382 132 400 c 0
 113 419 90 443 90 464 c 0
 90 485 113 509 132 528 c 0
 151 547 175 570 196 570 c 0
 217 570 241 547 260 528 c 0
 279 509 302 485 302 464 c 0
302 136 m 0
 302 115 279 91 260 72 c 0
 241 53 217 30 196 30 c 0
 175 30 151 53 132 72 c 0
 113 91 90 115 90 136 c 0
 90 157 113 181 132 200 c 0
 151 218 175 242 196 242 c 0
 217 242 241 218 260 200 c 0
 279 181 302 157 302 136 c 0
418 136 m 0
 418 166 494 242 524 242 c 0
 545 242 569 218 588 200 c 0
 607 181 630 157 630 136 c 0
 630 115 607 91 588 72 c 0
 569 53 545 30 524 30 c 0
 503 30 479 53 460 72 c 0
 442 91 418 115 418 136 c 0
EndSplineSet
EndChar

StartChar: minus
Encoding: 14 8722 14
Width: 720
Flags: HW
HStem: 250 100<90 630>
LayerCount: 2
Fore
SplineSet
630 350 m 1
 630 250 l 1
 90 250 l 1
 90 350 l 1
 630 350 l 1
EndSplineSet
EndChar

StartChar: uni2215
Encoding: 15 8725 15
Width: 720
Flags: HW
LayerCount: 2
Fore
SplineSet
567 578 m 1
 638 507 l 1
 153 22 l 1
 82 93 l 1
 567 578 l 1
EndSplineSet
EndChar

StartChar: uni2216
Encoding: 16 8726 16
Width: 720
Flags: HW
LayerCount: 2
Fore
SplineSet
82 507 m 1
 153 578 l 1
 638 93 l 1
 567 22 l 1
 82 507 l 1
EndSplineSet
EndChar

StartChar: plus
Encoding: 17 43 17
Width: 720
Flags: HW
HStem: 250 100<90 310 410 630>
VStem: 310 100<30 250 350 570>
LayerCount: 2
Fore
SplineSet
310 570 m 1
 410 570 l 1
 410 350 l 1
 630 350 l 1
 630 250 l 1
 410 250 l 1
 410 30 l 1
 310 30 l 1
 310 250 l 1
 90 250 l 1
 90 350 l 1
 310 350 l 1
 310 570 l 1
EndSplineSet
EndChar

StartChar: multiply
Encoding: 18 215 18
Width: 720
Flags: HW
LayerCount: 2
Fore
SplineSet
82 507 m 1
 153 578 l 1
 360 371 l 1
 567 578 l 1
 638 507 l 1
 431 300 l 1
 638 93 l 1
 567 22 l 1
 360 229 l 1
 153 22 l 1
 82 93 l 1
 289 300 l 1
 82 507 l 1
EndSplineSet
EndChar

StartChar: uni2238
Encoding: 19 8760 19
Width: 720
Flags: HW
HStem: 250 100<90 630> 420 159<322.81 397.528>
VStem: 281 159<461.81 536.528>
LayerCount: 2
Fore
SplineSet
90 250 m 1
 90 350 l 1
 630 350 l 1
 630 250 l 1
 90 250 l 1
281 499 m 0
 281 523 337 579 360 579 c 0
 376 579 394 561 408 547 c 0
 422 533 440 515 440 499 c 0
 440 476 384 420 360 420 c 0
 336 420 281 475 281 499 c 0
EndSplineSet
EndChar

StartChar: uni2A2A
Encoding: 20 10794 20
Width: 720
Flags: HW
HStem: 21 159<322.81 397.528> 250 100<90 630>
VStem: 281 159<63.4718 138.19>
LayerCount: 2
Fore
SplineSet
630 350 m 1
 630 250 l 1
 90 250 l 1
 90 350 l 1
 630 350 l 1
360 180 m 0
 384 180 440 124 440 101 c 0
 440 85 422 67 408 53 c 0
 394 39 376 21 360 21 c 0
 337 21 281 77 281 101 c 0
 281 125 336 180 360 180 c 0
EndSplineSet
EndChar

StartChar: divide
Encoding: 21 247 21
Width: 720
Flags: HW
HStem: 21 159<322.81 397.528> 250 100<90 630> 420 159<322.81 397.528>
VStem: 281 159<63.4718 138.19 461.81 536.528>
CounterMasks: 1 e0
LayerCount: 2
Fore
SplineSet
630 350 m 1
 630 250 l 1
 90 250 l 1
 90 350 l 1
 630 350 l 1
281 499 m 0
 281 523 337 579 360 579 c 0
 376 579 394 561 408 547 c 0
 422 533 440 515 440 499 c 0
 440 476 384 420 360 420 c 0
 336 420 281 475 281 499 c 0
360 180 m 0
 384 180 440 124 440 101 c 0
 440 85 422 67 408 53 c 0
 394 39 376 21 360 21 c 0
 337 21 281 77 281 101 c 0
 281 125 336 180 360 180 c 0
EndSplineSet
EndChar

StartChar: uni2A2B
Encoding: 22 10795 22
Width: 720
Flags: HW
HStem: 21 159<463.472 537.319> 250 100<90 630> 420 159<182.472 256.319>
VStem: 140 159<462.245 536.574> 421 159<63.4257 137.755>
CounterMasks: 1 e0
LayerCount: 2
Fore
SplineSet
630 350 m 1
 630 250 l 1
 90 250 l 1
 90 350 l 1
 630 350 l 1
220 420 m 0
 196 420 140 476 140 499 c 0
 140 515 158 533 172 547 c 0
 186 561 204 579 220 579 c 0
 235 579 253 561 267 547 c 0
 281 533 299 515 299 499 c 0
 299 476 242 420 220 420 c 0
501 180 m 0
 523 180 580 124 580 101 c 0
 580 85 562 67 548 53 c 0
 534 39 516 21 501 21 c 0
 485 21 467 39 453 53 c 0
 439 67 421 85 421 101 c 0
 421 124 477 180 501 180 c 0
EndSplineSet
EndChar

StartChar: uni2A2C
Encoding: 23 10796 23
Width: 720
Flags: HW
HStem: 21 159<182.472 256.319> 250 100<90 630> 420 159<463.472 537.319>
VStem: 140 159<63.4257 137.755> 421 159<462.245 536.574>
CounterMasks: 1 e0
LayerCount: 2
Fore
SplineSet
630 350 m 1
 630 250 l 1
 90 250 l 1
 90 350 l 1
 630 350 l 1
501 420 m 0
 477 420 421 476 421 499 c 0
 421 515 439 533 453 547 c 0
 467 561 485 579 501 579 c 0
 516 579 534 561 548 547 c 0
 562 533 580 515 580 499 c 0
 580 476 523 420 501 420 c 0
220 180 m 0
 242 180 299 124 299 101 c 0
 299 85 281 67 267 53 c 0
 253 39 235 21 220 21 c 0
 204 21 186 39 172 53 c 0
 158 67 140 85 140 101 c 0
 140 124 196 180 220 180 c 0
EndSplineSet
EndChar

StartChar: uni223A
Encoding: 24 8762 24
Width: 720
Flags: HW
HStem: 21 159<182.472 256.319 463.472 537.319> 250 100<90 630> 420 159<182.472 256.319 463.472 537.319>
VStem: 140 159<63.4257 137.755 462.245 536.574> 421 159<63.4257 137.755 462.245 536.574>
CounterMasks: 1 e0
LayerCount: 2
Fore
SplineSet
630 350 m 1
 630 250 l 1
 90 250 l 1
 90 350 l 1
 630 350 l 1
220 420 m 0
 196 420 140 476 140 499 c 0
 140 515 158 533 172 547 c 0
 186 561 204 579 220 579 c 0
 235 579 253 561 267 547 c 0
 281 533 299 515 299 499 c 0
 299 476 242 420 220 420 c 0
501 420 m 0
 477 420 421 476 421 499 c 0
 421 515 439 533 453 547 c 0
 467 561 485 579 501 579 c 0
 516 579 534 561 548 547 c 0
 562 533 580 515 580 499 c 0
 580 476 523 420 501 420 c 0
220 180 m 0
 242 180 299 124 299 101 c 0
 299 85 281 67 267 53 c 0
 253 39 235 21 220 21 c 0
 204 21 186 39 172 53 c 0
 158 67 140 85 140 101 c 0
 140 124 196 180 220 180 c 0
501 180 m 0
 523 180 580 124 580 101 c 0
 580 85 562 67 548 53 c 0
 534 39 516 21 501 21 c 0
 485 21 467 39 453 53 c 0
 439 67 421 85 421 101 c 0
 421 124 477 180 501 180 c 0
EndSplineSet
EndChar

StartChar: plusminus
Encoding: 25 177 25
Width: 720
Flags: HW
HStem: -38 100<90 630> 318 100<90 310 410 630>
VStem: 310 100<97 318 418 638>
LayerCount: 2
Fore
SplineSet
310 638 m 1
 410 638 l 1
 410 418 l 1
 630 418 l 1
 630 318 l 1
 410 318 l 1
 410 97 l 1
 310 97 l 1
 310 318 l 1
 90 318 l 1
 90 418 l 1
 310 418 l 1
 310 638 l 1
630 62 m 1
 630 -38 l 1
 90 -38 l 1
 90 62 l 1
 630 62 l 1
EndSplineSet
EndChar

StartChar: uni2213
Encoding: 26 8723 26
Width: 720
Flags: HW
HStem: 182 100<90 310 410 630> 538 100<90 630>
VStem: 310 100<-38 182 282 503>
LayerCount: 2
Fore
SplineSet
310 503 m 1
 410 503 l 1
 410 282 l 1
 630 282 l 1
 630 182 l 1
 410 182 l 1
 410 -38 l 1
 310 -38 l 1
 310 182 l 1
 90 182 l 1
 90 282 l 1
 310 282 l 1
 310 503 l 1
630 638 m 1
 630 538 l 1
 90 538 l 1
 90 638 l 1
 630 638 l 1
EndSplineSet
EndChar

StartChar: uni2214
Encoding: 27 8724 27
Width: 720
Flags: HW
HStem: 182 100<90 310 410 630> 508 159<323.245 397.574>
VStem: 281 159<550.472 624.319> 310 100<-38 182 282 503>
LayerCount: 2
Fore
SplineSet
310 503 m 1xd0
 410 503 l 1
 410 282 l 1
 630 282 l 1
 630 182 l 1
 410 182 l 1
 410 -38 l 1
 310 -38 l 1
 310 182 l 1
 90 182 l 1
 90 282 l 1
 310 282 l 1
 310 503 l 1xd0
281 588 m 0xe0
 281 610 337 667 360 667 c 0
 376 667 394 649 408 635 c 0
 422 621 440 603 440 588 c 0
 440 572 422 554 408 540 c 0
 394 526 376 508 360 508 c 0
 337 508 281 564 281 588 c 0xe0
EndSplineSet
EndChar

StartChar: uni2A25
Encoding: 28 10789 28
Width: 720
Flags: HW
HStem: -67 159<323.245 397.574> 318 100<90 310 410 630>
VStem: 281 159<-24.3194 49.5282> 310 100<97 318 418 638>
LayerCount: 2
Fore
SplineSet
310 638 m 1xd0
 410 638 l 1
 410 418 l 1
 630 418 l 1
 630 318 l 1
 410 318 l 1
 410 97 l 1
 310 97 l 1
 310 318 l 1
 90 318 l 1
 90 418 l 1
 310 418 l 1
 310 638 l 1xd0
281 12 m 0xe0
 281 36 337 92 360 92 c 0
 376 92 394 74 408 60 c 0
 422 46 440 28 440 12 c 0
 440 -3 422 -21 408 -35 c 0
 394 -49 376 -67 360 -67 c 0
 337 -67 281 -10 281 12 c 0xe0
EndSplineSet
EndChar

StartChar: uni2A30
Encoding: 29 10800 29
Width: 720
Flags: HW
HStem: 481 159<323.245 397.574>
VStem: 281 159<523.472 597.319>
LayerCount: 2
Fore
SplineSet
82 440 m 1
 153 511 l 1
 360 304 l 1
 567 511 l 1
 638 440 l 1
 431 232 l 1
 638 25 l 1
 567 -46 l 1
 360 161 l 1
 153 -46 l 1
 82 25 l 1
 289 232 l 1
 82 440 l 1
281 561 m 0
 281 583 337 640 360 640 c 0
 376 640 394 622 408 608 c 0
 422 594 440 576 440 561 c 0
 440 545 422 527 408 513 c 0
 394 499 376 481 360 481 c 0
 337 481 281 537 281 561 c 0
EndSplineSet
EndChar

StartChar: uni2A31
Encoding: 30 10801 30
Width: 720
Flags: HW
HStem: -38 100<90 630>
LayerCount: 2
Fore
SplineSet
82 575 m 1
 153 646 l 1
 360 439 l 1
 567 646 l 1
 638 575 l 1
 431 368 l 1
 638 160 l 1
 567 89 l 1
 360 296 l 1
 153 89 l 1
 82 160 l 1
 289 368 l 1
 82 575 l 1
630 62 m 1
 630 -38 l 1
 90 -38 l 1
 90 62 l 1
 630 62 l 1
EndSplineSet
EndChar

StartChar: uni22C7
Encoding: 31 8903 31
Width: 720
Flags: HW
HStem: 21 159<322.81 397.528> 250 100<90 239 481 630> 420 159<322.81 397.528>
VStem: 281 159<63.4718 138.19 461.81 536.528>
CounterMasks: 1 e0
LayerCount: 2
Fore
SplineSet
82 507 m 1
 153 578 l 1
 360 371 l 1
 567 578 l 1
 638 507 l 1
 481 350 l 1
 630 350 l 1
 630 250 l 1
 481 250 l 1
 638 93 l 1
 567 22 l 1
 360 229 l 1
 153 22 l 1
 82 93 l 1
 239 250 l 1
 90 250 l 1
 90 350 l 1
 239 350 l 1
 82 507 l 1
281 499 m 0
 281 523 337 579 360 579 c 0
 376 579 394 561 408 547 c 0
 422 533 440 515 440 499 c 0
 440 476 384 420 360 420 c 0
 336 420 281 475 281 499 c 0
360 180 m 0
 384 180 440 124 440 101 c 0
 440 85 422 67 408 53 c 0
 394 39 376 21 360 21 c 0
 337 21 281 77 281 101 c 0
 281 125 336 180 360 180 c 0
EndSplineSet
EndChar

StartChar: logicalnot
Encoding: 32 172 32
Width: 720
Flags: HW
HStem: 250 100<90 530>
VStem: 530 100<51 250>
LayerCount: 2
Fore
SplineSet
90 250 m 1
 90 350 l 1
 630 350 l 1
 630 51 l 1
 530 51 l 1
 530 250 l 1
 90 250 l 1
EndSplineSet
EndChar

StartChar: revlogicalnot
Encoding: 33 8976 33
Width: 720
Flags: HW
HStem: 250 100<190 630>
VStem: 90 100<51 250>
LayerCount: 2
Fore
SplineSet
190 250 m 1
 190 51 l 1
 90 51 l 1
 90 350 l 1
 630 350 l 1
 630 250 l 1
 190 250 l 1
EndSplineSet
EndChar

StartChar: uni2A3C
Encoding: 34 10812 34
Width: 720
Flags: HW
HStem: 250 100<90 530> 529 20G<530 630>
VStem: 530 100<350 549>
LayerCount: 2
Fore
SplineSet
90 250 m 1
 90 350 l 1
 530 350 l 1
 530 549 l 1
 630 549 l 1
 630 250 l 1
 90 250 l 1
EndSplineSet
EndChar

StartChar: uni2A3D
Encoding: 35 10813 35
Width: 720
Flags: HW
HStem: 250 100<190 630> 529 20G<90 190>
VStem: 90 100<350 549>
LayerCount: 2
Fore
SplineSet
630 250 m 1
 90 250 l 1
 90 549 l 1
 190 549 l 1
 190 350 l 1
 630 350 l 1
 630 250 l 1
EndSplineSet
EndChar

StartChar: uni22CB
Encoding: 36 8907 36
Width: 720
Flags: HW
LayerCount: 2
Fore
SplineSet
638 93 m 1
 567 22 l 1
 360 229 l 1
 153 22 l 1
 82 93 l 1
 289 300 l 1
 82 507 l 1
 153 578 l 1
 638 93 l 1
EndSplineSet
EndChar

StartChar: uni22CC
Encoding: 37 8908 37
Width: 720
Flags: HW
LayerCount: 2
Fore
SplineSet
567 578 m 1
 638 507 l 1
 431 300 l 1
 638 93 l 1
 567 22 l 1
 360 229 l 1
 153 22 l 1
 82 93 l 1
 567 578 l 1
EndSplineSet
EndChar

StartChar: uni2A32
Encoding: 38 10802 38
Width: 720
Flags: HW
HStem: 28 100<259 461>
LayerCount: 2
Fore
SplineSet
603 128 m 1
 576 28 l 1
 144 28 l 1
 117 128 l 1
 289 300 l 1
 82 507 l 1
 153 578 l 1
 360 371 l 1
 567 578 l 1
 638 507 l 1
 431 300 l 1
 603 128 l 1
461 128 m 1
 360 229 l 1
 259 128 l 1
 461 128 l 1
EndSplineSet
EndChar

StartChar: uni22CA
Encoding: 39 8906 39
Width: 720
Flags: HW
VStem: 532 100<199 401>
LayerCount: 2
Fore
SplineSet
532 543 m 1
 632 516 l 1
 632 84 l 1
 532 57 l 1
 360 229 l 1
 153 22 l 1
 82 93 l 1
 289 300 l 1
 82 507 l 1
 153 578 l 1
 360 371 l 1
 532 543 l 1
532 401 m 1
 431 300 l 1
 532 199 l 1
 532 401 l 1
EndSplineSet
EndChar

StartChar: sym005
Encoding: 40 -1 40
Width: 720
Flags: HW
HStem: 472 100<259 461>
LayerCount: 2
Fore
SplineSet
117 472 m 1
 144 572 l 1
 576 572 l 1
 603 472 l 1
 431 300 l 1
 638 93 l 1
 567 22 l 1
 360 229 l 1
 153 22 l 1
 82 93 l 1
 289 300 l 1
 117 472 l 1
259 472 m 1
 360 371 l 1
 461 472 l 1
 259 472 l 1
EndSplineSet
EndChar

StartChar: uni22C9
Encoding: 41 8905 41
Width: 720
Flags: HW
VStem: 88 100<199 401>
LayerCount: 2
Fore
SplineSet
188 57 m 1
 88 84 l 1
 88 516 l 1
 188 543 l 1
 360 371 l 1
 567 578 l 1
 638 507 l 1
 431 300 l 1
 638 93 l 1
 567 22 l 1
 360 229 l 1
 188 57 l 1
188 199 m 1
 289 300 l 1
 188 401 l 1
 188 199 l 1
EndSplineSet
EndChar

StartChar: uni22C8
Encoding: 42 8904 42
Width: 720
Flags: HW
VStem: 88 100<199 401> 532 100<199 401>
LayerCount: 2
Fore
SplineSet
188 57 m 1
 88 84 l 1
 88 516 l 1
 188 543 l 1
 360 371 l 1
 532 543 l 1
 632 516 l 1
 632 84 l 1
 532 57 l 1
 360 229 l 1
 188 57 l 1
532 401 m 1
 431 300 l 1
 532 199 l 1
 532 401 l 1
188 199 m 1
 289 300 l 1
 188 401 l 1
 188 199 l 1
EndSplineSet
EndChar

StartChar: uni29D6
Encoding: 43 10710 43
Width: 720
Flags: HW
HStem: 28 100<259 461> 472 100<259 461>
LayerCount: 2
Fore
SplineSet
603 128 m 1
 576 28 l 1
 144 28 l 1
 117 128 l 1
 289 300 l 1
 117 472 l 1
 144 572 l 1
 576 572 l 1
 603 472 l 1
 431 300 l 1
 603 128 l 1
259 472 m 1
 360 371 l 1
 461 472 l 1
 259 472 l 1
461 128 m 1
 360 229 l 1
 259 128 l 1
 461 128 l 1
EndSplineSet
EndChar

StartChar: sym006
Encoding: 44 -1 44
Width: 720
Flags: HW
HStem: 250 100<345 630> 532 20G<123 163>
LayerCount: 2
Fore
SplineSet
143 552 m 1
 345 350 l 1
 630 350 l 1
 630 250 l 1
 345 250 l 1
 143 48 l 1
 72 119 l 1
 253 300 l 1
 72 481 l 1
 143 552 l 1
EndSplineSet
EndChar

StartChar: sym007
Encoding: 45 -1 45
Width: 720
Flags: HW
VStem: 310 100<285 570>
LayerCount: 2
Fore
SplineSet
108 83 m 1
 310 285 l 1
 310 570 l 1
 410 570 l 1
 410 285 l 1
 612 83 l 1
 541 12 l 1
 360 193 l 1
 179 12 l 1
 108 83 l 1
EndSplineSet
EndChar

StartChar: sym008
Encoding: 46 -1 46
Width: 720
Flags: HW
HStem: 250 100<90 375> 532 20G<557 597>
LayerCount: 2
Fore
SplineSet
577 48 m 1
 375 250 l 1
 90 250 l 1
 90 350 l 1
 375 350 l 1
 577 552 l 1
 648 481 l 1
 467 300 l 1
 648 119 l 1
 577 48 l 1
EndSplineSet
EndChar

StartChar: sym009
Encoding: 47 -1 47
Width: 720
Flags: HW
VStem: 310 100<30 315>
LayerCount: 2
Fore
SplineSet
612 517 m 1
 410 315 l 1
 410 30 l 1
 310 30 l 1
 310 315 l 1
 108 517 l 1
 179 588 l 1
 360 407 l 1
 541 588 l 1
 612 517 l 1
EndSplineSet
EndChar

StartChar: logicaland
Encoding: 48 8743 48
Width: 720
Flags: HW
LayerCount: 2
Fore
SplineSet
616 71 m 1
 525 30 l 1
 360 398 l 1
 195 30 l 1
 104 71 l 1
 328 570 l 1
 392 570 l 1
 616 71 l 1
EndSplineSet
EndChar

StartChar: logicalor
Encoding: 49 8744 49
Width: 720
Flags: HW
LayerCount: 2
Fore
SplineSet
104 529 m 1
 195 570 l 1
 360 202 l 1
 525 570 l 1
 616 529 l 1
 392 30 l 1
 328 30 l 1
 104 529 l 1
EndSplineSet
EndChar

StartChar: uni27D1
Encoding: 50 10193 50
Width: 720
Flags: HW
HStem: 40 159<322.81 397.528>
VStem: 281 159<82.4718 157.19>
LayerCount: 2
Fore
SplineSet
616 71 m 1
 525 30 l 1
 360 398 l 1
 195 30 l 1
 104 71 l 1
 328 570 l 1
 392 570 l 1
 616 71 l 1
360 199 m 0
 384 199 440 143 440 120 c 0
 440 104 422 86 408 72 c 0
 394 58 376 40 360 40 c 0
 337 40 281 96 281 120 c 0
 281 144 336 199 360 199 c 0
EndSplineSet
EndChar

StartChar: uni27C7
Encoding: 51 10183 51
Width: 720
Flags: HW
HStem: 401 159<322.81 397.528>
VStem: 281 159<442.81 517.528>
LayerCount: 2
Fore
SplineSet
104 529 m 1
 195 570 l 1
 360 202 l 1
 525 570 l 1
 616 529 l 1
 392 30 l 1
 328 30 l 1
 104 529 l 1
281 480 m 0
 281 504 337 560 360 560 c 0
 376 560 394 542 408 528 c 0
 422 514 440 496 440 480 c 0
 440 457 384 401 360 401 c 0
 336 401 281 456 281 480 c 0
EndSplineSet
EndChar

StartChar: uni2A55
Encoding: 52 10837 52
Width: 960
Flags: HW
LayerCount: 2
Fore
SplineSet
856 71 m 1
 765 30 l 1
 600 398 l 1
 535 252 l 1
 616 71 l 1
 525 30 l 1
 480 130 l 1
 435 30 l 1
 344 71 l 1
 425 252 l 1
 360 398 l 1
 195 30 l 1
 104 71 l 1
 328 570 l 1
 392 570 l 1
 480 374 l 1
 568 570 l 1
 632 570 l 1
 856 71 l 1
EndSplineSet
EndChar

StartChar: uni2A56
Encoding: 53 10838 53
Width: 960
Flags: HW
LayerCount: 2
Fore
SplineSet
344 529 m 1
 435 570 l 1
 480 470 l 1
 525 570 l 1
 616 529 l 1
 535 348 l 1
 600 202 l 1
 765 570 l 1
 856 529 l 1
 632 30 l 1
 568 30 l 1
 480 226 l 1
 392 30 l 1
 328 30 l 1
 104 529 l 1
 195 570 l 1
 360 202 l 1
 425 348 l 1
 344 529 l 1
EndSplineSet
EndChar

StartChar: uni22CF
Encoding: 54 8911 54
Width: 720
Flags: HW
VStem: 310 100<381.125 570>
LayerCount: 2
Fore
SplineSet
360 286 m 1
 318 190 253 103 174 30 c 1
 106 103 l 1
 224 213 310 359 310 520 c 2
 310 570 l 1
 410 570 l 1
 410 520 l 2
 410 359 496 213 614 103 c 1
 546 30 l 1
 467 103 402 190 360 286 c 1
EndSplineSet
EndChar

StartChar: uni22CE
Encoding: 55 8910 55
Width: 720
Flags: HW
VStem: 310 100<30 218.875>
LayerCount: 2
Fore
SplineSet
360 314 m 1
 402 410 467 497 546 570 c 1
 614 497 l 1
 496 387 410 241 410 80 c 2
 410 30 l 1
 310 30 l 1
 310 80 l 2
 310 241 224 387 106 497 c 1
 174 570 l 1
 253 497 318 410 360 314 c 1
EndSplineSet
EndChar

StartChar: uni22BC
Encoding: 56 8892 56
Width: 720
Flags: HW
HStem: 538 100<90 630>
LayerCount: 2
Fore
SplineSet
616 3 m 1
 525 -38 l 1
 360 330 l 1
 195 -38 l 1
 104 3 l 1
 328 503 l 1
 392 503 l 1
 616 3 l 1
90 538 m 1
 90 638 l 1
 630 638 l 1
 630 538 l 1
 90 538 l 1
EndSplineSet
EndChar

StartChar: uni22BB
Encoding: 57 8891 57
Width: 720
Flags: HW
HStem: -38 100<90 630>
LayerCount: 2
Fore
SplineSet
104 597 m 1
 195 638 l 1
 360 270 l 1
 525 638 l 1
 616 597 l 1
 392 97 l 1
 328 97 l 1
 104 597 l 1
90 -38 m 1
 90 62 l 1
 630 62 l 1
 630 -38 l 1
 90 -38 l 1
EndSplineSet
EndChar

StartChar: uni2A5E
Encoding: 58 10846 58
Width: 720
Flags: HW
HStem: 470 100<90 630> 605 100<90 630>
LayerCount: 2
Fore
SplineSet
616 -64 m 1
 525 -105 l 1
 360 263 l 1
 195 -105 l 1
 104 -64 l 1
 328 435 l 1
 392 435 l 1
 616 -64 l 1
90 470 m 1
 90 570 l 1
 630 570 l 1
 630 470 l 1
 90 470 l 1
90 605 m 1
 90 705 l 1
 630 705 l 1
 630 605 l 1
 90 605 l 1
EndSplineSet
EndChar

StartChar: uni2A63
Encoding: 59 10851 59
Width: 720
Flags: HW
HStem: -105 100<90 630> 30 100<90 630>
LayerCount: 2
Fore
SplineSet
104 664 m 1
 195 705 l 1
 360 337 l 1
 525 705 l 1
 616 664 l 1
 392 165 l 1
 328 165 l 1
 104 664 l 1
90 30 m 1
 90 130 l 1
 630 130 l 1
 630 30 l 1
 90 30 l 1
90 -105 m 1
 90 -5 l 1
 630 -5 l 1
 630 -105 l 1
 90 -105 l 1
EndSplineSet
EndChar

StartChar: union
Encoding: 60 8746 60
Width: 720
Flags: HW
HStem: 30 100<264.259 455.741>
VStem: 90 100<197.389 570> 530 100<197.389 570>
LayerCount: 2
Fore
SplineSet
190 570 m 1
 190 257 l 2
 190 178 273 130 360 130 c 0
 447 130 530 178 530 257 c 2
 530 570 l 1
 630 570 l 1
 630 257 l 2
 630 123 502 30 360 30 c 0
 218 30 90 123 90 257 c 2
 90 570 l 1
 190 570 l 1
EndSplineSet
EndChar

StartChar: intersection
Encoding: 61 8745 61
Width: 720
Flags: HW
HStem: 470 100<264.259 455.741>
VStem: 90 100<30 402.611> 530 100<30 402.611>
LayerCount: 2
Fore
SplineSet
530 30 m 1
 530 343 l 2
 530 422 447 470 360 470 c 0
 273 470 190 422 190 343 c 2
 190 30 l 1
 90 30 l 1
 90 343 l 2
 90 477 218 570 360 570 c 0
 502 570 630 477 630 343 c 2
 630 30 l 1
 530 30 l 1
EndSplineSet
EndChar

StartChar: uni22D3
Encoding: 62 8915 62
Width: 900
Flags: HW
HStem: -60 100<336.685 563.315> 150 100<385.702 514.298>
VStem: 90 100<166.188 660> 271 100<267.679 660> 529 100<267.679 660> 710 100<166.188 660>
LayerCount: 2
Fore
SplineSet
371 660 m 1
 371 304 l 2
 371 268 410 250 450 250 c 0
 490 250 529 268 529 304 c 2
 529 660 l 1
 629 660 l 1
 629 304 l 2
 629 214 545 150 450 150 c 0
 355 150 271 214 271 304 c 2
 271 660 l 1
 371 660 l 1
190 660 m 1
 190 246 l 2
 190 121 315 40 450 40 c 0
 585 40 710 121 710 246 c 2
 710 660 l 1
 810 660 l 1
 810 246 l 2
 810 67 640 -60 450 -60 c 0
 260 -60 90 67 90 246 c 2
 90 660 l 1
 190 660 l 1
EndSplineSet
EndChar

StartChar: uni22D2
Encoding: 63 8914 63
Width: 900
Flags: HW
HStem: 350 100<385.702 514.298> 560 100<336.685 563.315>
VStem: 90 100<-60 433.812> 271 100<-60 332.321> 529 100<-60 332.321> 710 100<-60 433.812>
LayerCount: 2
Fore
SplineSet
529 -60 m 1
 529 296 l 2
 529 332 490 350 450 350 c 0
 410 350 371 332 371 296 c 2
 371 -60 l 1
 271 -60 l 1
 271 296 l 2
 271 386 355 450 450 450 c 0
 545 450 629 386 629 296 c 2
 629 -60 l 1
 529 -60 l 1
710 -60 m 1
 710 354 l 2
 710 479 585 560 450 560 c 0
 315 560 190 479 190 354 c 2
 190 -60 l 1
 90 -60 l 1
 90 354 l 2
 90 533 260 660 450 660 c 0
 640 660 810 533 810 354 c 2
 810 -60 l 1
 710 -60 l 1
EndSplineSet
EndChar

StartChar: uni228D
Encoding: 64 8845 64
Width: 720
Flags: HW
HStem: 30 100<264.259 455.741> 311 159<322.81 397.528>
VStem: 90 100<197.389 570> 281 159<352.81 427.528> 530 100<197.389 570>
LayerCount: 2
Fore
SplineSet
190 570 m 1
 190 257 l 2
 190 178 273 130 360 130 c 0
 447 130 530 178 530 257 c 2
 530 570 l 1
 630 570 l 1
 630 257 l 2
 630 123 502 30 360 30 c 0
 218 30 90 123 90 257 c 2
 90 570 l 1
 190 570 l 1
281 390 m 0
 281 414 337 470 360 470 c 0
 376 470 394 452 408 438 c 0
 422 424 440 406 440 390 c 0
 440 367 384 311 360 311 c 0
 336 311 281 366 281 390 c 0
EndSplineSet
EndChar

StartChar: uni2A40
Encoding: 65 10816 65
Width: 720
Flags: HW
HStem: 130 159<322.81 397.528> 470 100<264.259 455.741>
VStem: 90 100<30 402.611> 281 159<172.472 247.19> 530 100<30 402.611>
LayerCount: 2
Fore
SplineSet
530 30 m 1
 530 343 l 2
 530 422 447 470 360 470 c 0
 273 470 190 422 190 343 c 2
 190 30 l 1
 90 30 l 1
 90 343 l 2
 90 477 218 570 360 570 c 0
 502 570 630 477 630 343 c 2
 630 30 l 1
 530 30 l 1
360 289 m 0
 384 289 440 233 440 210 c 0
 440 194 422 176 408 162 c 0
 394 148 376 130 360 130 c 0
 337 130 281 186 281 210 c 0
 281 234 336 289 360 289 c 0
EndSplineSet
EndChar

StartChar: uni228E
Encoding: 66 8846 66
Width: 720
Flags: HW
HStem: 30 100<264.259 455.741> 340 100<220 310 410 500>
VStem: 90 100<197.389 570> 310 100<250 340 440 530> 530 100<197.389 570>
CounterMasks: 1 38
LayerCount: 2
Fore
SplineSet
190 570 m 1
 190 257 l 2
 190 178 273 130 360 130 c 0
 447 130 530 178 530 257 c 2
 530 570 l 1
 630 570 l 1
 630 257 l 2
 630 123 502 30 360 30 c 0
 218 30 90 123 90 257 c 2
 90 570 l 1
 190 570 l 1
310 530 m 1
 410 530 l 1
 410 440 l 1
 500 440 l 1
 500 340 l 1
 410 340 l 1
 410 250 l 1
 310 250 l 1
 310 340 l 1
 220 340 l 1
 220 440 l 1
 310 440 l 1
 310 530 l 1
EndSplineSet
EndChar

StartChar: sym00A
Encoding: 67 -1 67
Width: 720
Flags: HW
HStem: 160 100<220 310 410 500> 470 100<264.259 455.741>
VStem: 90 100<30 402.611> 310 100<70 160 260 350> 530 100<30 402.611>
CounterMasks: 1 38
LayerCount: 2
Fore
SplineSet
530 30 m 1
 530 343 l 2
 530 422 447 470 360 470 c 0
 273 470 190 422 190 343 c 2
 190 30 l 1
 90 30 l 1
 90 343 l 2
 90 477 218 570 360 570 c 0
 502 570 630 477 630 343 c 2
 630 30 l 1
 530 30 l 1
310 350 m 1
 410 350 l 1
 410 260 l 1
 500 260 l 1
 500 160 l 1
 410 160 l 1
 410 70 l 1
 310 70 l 1
 310 160 l 1
 220 160 l 1
 220 260 l 1
 310 260 l 1
 310 350 l 1
EndSplineSet
EndChar

StartChar: uni2294
Encoding: 68 8852 68
Width: 720
Flags: HW
HStem: 30 100<190 530>
VStem: 90 100<130 570> 530 100<130 570>
LayerCount: 2
Fore
SplineSet
90 570 m 1
 190 570 l 1
 190 130 l 1
 530 130 l 1
 530 570 l 1
 630 570 l 1
 630 30 l 1
 90 30 l 1
 90 570 l 1
EndSplineSet
EndChar

StartChar: uni2293
Encoding: 69 8851 69
Width: 720
Flags: HW
HStem: 470 100<190 530>
VStem: 90 100<30 470> 530 100<30 470>
LayerCount: 2
Fore
SplineSet
190 30 m 1
 90 30 l 1
 90 570 l 1
 630 570 l 1
 630 30 l 1
 530 30 l 1
 530 470 l 1
 190 470 l 1
 190 30 l 1
EndSplineSet
EndChar

StartChar: uni2A4F
Encoding: 70 10831 70
Width: 900
Flags: HW
HStem: -60 100<190 710> 121 100<350 550>
VStem: 90 100<40 660> 250 100<221 660> 550 100<221 660> 710 100<40 660>
LayerCount: 2
Fore
SplineSet
90 660 m 1
 190 660 l 1
 190 40 l 1
 710 40 l 1
 710 660 l 1
 810 660 l 1
 810 -60 l 1
 90 -60 l 1
 90 660 l 1
250 660 m 1
 350 660 l 1
 350 221 l 1
 550 221 l 1
 550 660 l 1
 650 660 l 1
 650 121 l 1
 250 121 l 1
 250 660 l 1
EndSplineSet
EndChar

StartChar: uni2A4E
Encoding: 71 10830 71
Width: 900
Flags: HW
HStem: 379 100<350 550> 560 100<190 710>
VStem: 90 100<-60 560> 250 100<-60 379> 550 100<-60 379> 710 100<-60 560>
LayerCount: 2
Fore
SplineSet
190 -60 m 1
 90 -60 l 1
 90 660 l 1
 810 660 l 1
 810 -60 l 1
 710 -60 l 1
 710 560 l 1
 190 560 l 1
 190 -60 l 1
350 -60 m 1
 250 -60 l 1
 250 479 l 1
 650 479 l 1
 650 -60 l 1
 550 -60 l 1
 550 379 l 1
 350 379 l 1
 350 -60 l 1
EndSplineSet
EndChar

StartChar: sym00B
Encoding: 72 -1 72
Width: 720
Flags: HW
HStem: 30 100<190 530> 311 159<322.81 397.528>
VStem: 90 100<130 570> 281 159<352.81 427.528> 530 100<130 570>
LayerCount: 2
Fore
SplineSet
90 570 m 1
 190 570 l 1
 190 130 l 1
 530 130 l 1
 530 570 l 1
 630 570 l 1
 630 30 l 1
 90 30 l 1
 90 570 l 1
281 390 m 0
 281 414 337 470 360 470 c 0
 376 470 394 452 408 438 c 0
 422 424 440 406 440 390 c 0
 440 367 384 311 360 311 c 0
 336 311 281 366 281 390 c 0
EndSplineSet
EndChar

StartChar: sym00C
Encoding: 73 -1 73
Width: 720
Flags: HW
HStem: 130 159<322.81 397.528> 470 100<190 530>
VStem: 90 100<30 470> 281 159<172.472 247.19> 530 100<30 470>
LayerCount: 2
Fore
SplineSet
190 30 m 1
 90 30 l 1
 90 570 l 1
 630 570 l 1
 630 30 l 1
 530 30 l 1
 530 470 l 1
 190 470 l 1
 190 30 l 1
360 289 m 0
 384 289 440 233 440 210 c 0
 440 194 422 176 408 162 c 0
 394 148 376 130 360 130 c 0
 337 130 281 186 281 210 c 0
 281 234 336 289 360 289 c 0
EndSplineSet
EndChar

StartChar: sym00D
Encoding: 74 -1 74
Width: 720
Flags: HW
HStem: 30 100<190 530> 340 100<220 310 410 500>
VStem: 90 100<130 570> 310 100<250 340 440 530> 530 100<130 570>
CounterMasks: 1 38
LayerCount: 2
Fore
SplineSet
90 570 m 1
 190 570 l 1
 190 130 l 1
 530 130 l 1
 530 570 l 1
 630 570 l 1
 630 30 l 1
 90 30 l 1
 90 570 l 1
310 530 m 1
 410 530 l 1
 410 440 l 1
 500 440 l 1
 500 340 l 1
 410 340 l 1
 410 250 l 1
 310 250 l 1
 310 340 l 1
 220 340 l 1
 220 440 l 1
 310 440 l 1
 310 530 l 1
EndSplineSet
EndChar

StartChar: sym00E
Encoding: 75 -1 75
Width: 720
Flags: HW
HStem: 160 100<220 310 410 500> 470 100<190 530>
VStem: 90 100<30 470> 310 100<70 160 260 350> 530 100<30 470>
CounterMasks: 1 38
LayerCount: 2
Fore
SplineSet
190 30 m 1
 90 30 l 1
 90 570 l 1
 630 570 l 1
 630 30 l 1
 530 30 l 1
 530 470 l 1
 190 470 l 1
 190 30 l 1
310 350 m 1
 410 350 l 1
 410 260 l 1
 500 260 l 1
 500 160 l 1
 410 160 l 1
 410 70 l 1
 310 70 l 1
 310 160 l 1
 220 160 l 1
 220 260 l 1
 310 260 l 1
 310 350 l 1
EndSplineSet
EndChar

StartChar: uni27D3
Encoding: 76 10195 76
Width: 720
Flags: HW
HStem: 30 100<90 530> 221 159<322.81 397.528>
VStem: 281 159<262.81 337.528> 530 100<130 570>
LayerCount: 2
Fore
SplineSet
90 30 m 1
 90 130 l 1
 530 130 l 1
 530 570 l 1
 630 570 l 1
 630 30 l 1
 90 30 l 1
281 300 m 0
 281 324 337 380 360 380 c 0
 376 380 394 362 408 348 c 0
 422 334 440 316 440 300 c 0
 440 277 384 221 360 221 c 0
 336 221 281 276 281 300 c 0
EndSplineSet
EndChar

StartChar: uni27D4
Encoding: 77 10196 77
Width: 720
Flags: HW
HStem: 221 159<322.81 397.528> 470 100<190 630>
VStem: 90 100<30 470> 281 159<262.81 337.528>
LayerCount: 2
Fore
SplineSet
630 570 m 1
 630 470 l 1
 190 470 l 1
 190 30 l 1
 90 30 l 1
 90 570 l 1
 630 570 l 1
281 300 m 0
 281 324 337 380 360 380 c 0
 376 380 394 362 408 348 c 0
 422 334 440 316 440 300 c 0
 440 277 384 221 360 221 c 0
 336 221 281 276 281 300 c 0
EndSplineSet
EndChar

StartChar: uni25B9
Encoding: 78 9657 78
Width: 690
Flags: HW
VStem: 90 100<179 421>
LayerCount: 2
Fore
SplineSet
600 300 m 1
 90 6 l 1
 90 594 l 1
 600 300 l 1
400 300 m 1
 190 421 l 1
 190 179 l 1
 400 300 l 1
EndSplineSet
EndChar

StartChar: uni25B5
Encoding: 79 9653 79
Width: 769
Flags: HW
HStem: 45 100<263 506> 535 20G<372.471 395.569>
LayerCount: 2
Fore
SplineSet
384 555 m 1
 679 45 l 1
 90 45 l 1
 384 555 l 1
384 355 m 1
 263 145 l 1
 506 145 l 1
 384 355 l 1
EndSplineSet
EndChar

StartChar: uni25C3
Encoding: 80 9667 80
Width: 690
Flags: HW
VStem: 500 100<179 421>
LayerCount: 2
Fore
SplineSet
90 300 m 1
 600 594 l 1
 600 6 l 1
 90 300 l 1
290 300 m 1
 500 179 l 1
 500 421 l 1
 290 300 l 1
EndSplineSet
EndChar

StartChar: uni25BF
Encoding: 81 9663 81
Width: 769
Flags: HW
HStem: 455 100<263 506>
LayerCount: 2
Fore
SplineSet
384 45 m 1
 90 555 l 1
 679 555 l 1
 384 45 l 1
384 245 m 1
 506 455 l 1
 263 455 l 1
 384 245 l 1
EndSplineSet
EndChar

StartChar: uni25B8
Encoding: 82 9656 82
Width: 690
Flags: HW
LayerCount: 2
Fore
SplineSet
600 300 m 1
 90 6 l 1
 90 594 l 1
 600 300 l 1
EndSplineSet
EndChar

StartChar: uni25B4
Encoding: 83 9652 83
Width: 769
Flags: HW
HStem: 535 20G<372.471 395.569>
LayerCount: 2
Fore
SplineSet
384 555 m 1
 679 45 l 1
 90 45 l 1
 384 555 l 1
EndSplineSet
EndChar

StartChar: uni25C2
Encoding: 84 9666 84
Width: 690
Flags: HW
LayerCount: 2
Fore
SplineSet
90 300 m 1
 600 594 l 1
 600 6 l 1
 90 300 l 1
EndSplineSet
EndChar

StartChar: uni25BE
Encoding: 85 9662 85
Width: 769
Flags: HW
HStem: 535 20G<90 679>
LayerCount: 2
Fore
SplineSet
384 45 m 1
 90 555 l 1
 679 555 l 1
 384 45 l 1
EndSplineSet
EndChar

StartChar: uni25B7
Encoding: 86 9655 86
Width: 893
Flags: HW
HStem: 691 20G<90 124.696>
VStem: 90 100<62 538>
LayerCount: 2
Fore
SplineSet
803 300 m 1
 90 -111 l 1
 90 711 l 1
 803 300 l 1
603 300 m 1
 190 538 l 1
 190 62 l 1
 603 300 l 1
EndSplineSet
EndChar

StartChar: uni25B3
Encoding: 87 9651 87
Width: 1003
Flags: HW
HStem: -56 100<263 740>
LayerCount: 2
Fore
SplineSet
501 656 m 1
 913 -56 l 1
 90 -56 l 1
 501 656 l 1
501 456 m 1
 263 44 l 1
 740 44 l 1
 501 456 l 1
EndSplineSet
EndChar

StartChar: uni25C1
Encoding: 88 9665 88
Width: 893
Flags: HW
HStem: 691 20G<768.304 803>
VStem: 703 100<62 538>
LayerCount: 2
Fore
SplineSet
90 300 m 1
 803 711 l 1
 803 -111 l 1
 90 300 l 1
290 300 m 1
 703 62 l 1
 703 538 l 1
 290 300 l 1
EndSplineSet
EndChar

StartChar: uni25BD
Encoding: 89 9661 89
Width: 1003
Flags: HW
HStem: 556 100<263 740>
LayerCount: 2
Fore
SplineSet
501 -56 m 1
 90 656 l 1
 913 656 l 1
 501 -56 l 1
501 144 m 1
 740 556 l 1
 263 556 l 1
 501 144 l 1
EndSplineSet
EndChar

StartChar: uni25B6
Encoding: 90 9654 90
Width: 893
Flags: HW
HStem: 691 20G<90 124.696>
LayerCount: 2
Fore
SplineSet
803 300 m 1
 90 -111 l 1
 90 711 l 1
 803 300 l 1
EndSplineSet
EndChar

StartChar: uni25B2
Encoding: 91 9650 91
Width: 1003
Flags: HW
LayerCount: 2
Fore
SplineSet
501 656 m 1
 913 -56 l 1
 90 -56 l 1
 501 656 l 1
EndSplineSet
EndChar

StartChar: uni25C0
Encoding: 92 9664 92
Width: 893
Flags: HW
HStem: 691 20G<768.304 803>
LayerCount: 2
Fore
SplineSet
90 300 m 1
 803 711 l 1
 803 -111 l 1
 90 300 l 1
EndSplineSet
EndChar

StartChar: uni25BC
Encoding: 93 9660 93
Width: 1003
Flags: HW
LayerCount: 2
Fore
SplineSet
501 -56 m 1
 90 656 l 1
 913 656 l 1
 501 -56 l 1
EndSplineSet
EndChar

StartChar: sym00F
Encoding: 94 -1 94
Width: 1289
Flags: HW
HStem: -180 100<263 1025>
LayerCount: 2
Fore
SplineSet
644 780 m 1
 1199 -180 l 1
 90 -180 l 1
 644 780 l 1
644 580 m 1
 263 -80 l 1
 1025 -80 l 1
 644 580 l 1
EndSplineSet
EndChar

StartChar: sym010
Encoding: 95 -1 95
Width: 1289
Flags: HW
HStem: 680 100<263 1025>
LayerCount: 2
Fore
SplineSet
644 -180 m 1
 90 780 l 1
 1199 780 l 1
 644 -180 l 1
644 20 m 1
 1025 680 l 1
 263 680 l 1
 644 20 l 1
EndSplineSet
EndChar

StartChar: openbullet
Encoding: 96 9702 96
Width: 564
Flags: HW
HStem: 108 100<224.182 339.818> 392 100<224.182 339.818>
VStem: 90 100<242.182 357.818> 374 100<242.182 357.818>
LayerCount: 2
Fore
SplineSet
282 492 m 0
 389 492 474 407 474 300 c 0
 474 193 389 108 282 108 c 0
 175 108 90 193 90 300 c 0
 90 407 175 492 282 492 c 0
282 208 m 0
 332 208 374 250 374 300 c 0
 374 350 332 392 282 392 c 0
 232 392 190 350 190 300 c 0
 190 250 232 208 282 208 c 0
EndSplineSet
EndChar

StartChar: bullet
Encoding: 97 8226 97
Width: 564
Flags: HW
HStem: 108 384<194.168 369.832>
VStem: 90 384<212.168 387.832>
LayerCount: 2
Fore
SplineSet
282 492 m 0
 389 492 474 407 474 300 c 0
 474 193 389 108 282 108 c 0
 175 108 90 193 90 300 c 0
 90 407 175 492 282 492 c 0
EndSplineSet
EndChar

StartChar: circle
Encoding: 98 9675 98
Width: 780
Flags: HW
HStem: 0 100<300.097 479.903> 500 100<300.097 479.903>
VStem: 90 100<210.097 389.903> 590 100<210.097 389.903>
LayerCount: 2
Fore
SplineSet
390 600 m 0
 555 600 690 465 690 300 c 0
 690 135 555 0 390 0 c 0
 225 0 90 135 90 300 c 0
 90 465 225 600 390 600 c 0
390 100 m 0
 500 100 590 190 590 300 c 0
 590 410 500 500 390 500 c 0
 280 500 190 410 190 300 c 0
 190 190 280 100 390 100 c 0
EndSplineSet
EndChar

StartChar: uni25CF
Encoding: 99 9679 99
Width: 780
Flags: HW
HStem: 0 600<280.28 499.72>
VStem: 90 600<190.28 409.72>
LayerCount: 2
Fore
SplineSet
390 600 m 0
 555 600 690 465 690 300 c 0
 690 135 555 0 390 0 c 0
 225 0 90 135 90 300 c 0
 90 465 225 600 390 600 c 0
EndSplineSet
EndChar

StartChar: uni2296
Encoding: 100 8854 100
Width: 780
Flags: HW
HStem: 0 100<300.479 479.521> 250 100<196 584> 500 100<300.479 479.521>
CounterMasks: 1 e0
LayerCount: 2
Fore
SplineSet
584 350 m 1
 562 433 485 500 390 500 c 0
 295 500 218 433 196 350 c 1
 584 350 l 1
196 250 m 1
 218 167 295 100 390 100 c 0
 485 100 562 167 584 250 c 1
 196 250 l 1
390 600 m 0
 555 600 690 465 690 300 c 0
 690 135 555 0 390 0 c 0
 225 0 90 135 90 300 c 0
 90 465 225 600 390 600 c 0
EndSplineSet
EndChar

StartChar: uni29B6
Encoding: 101 10678 101
Width: 780
Flags: HW
HStem: 0 21G<307.5 472.5>
VStem: 90 100<210.479 389.521> 340 100<106 494> 590 100<210.479 389.521>
CounterMasks: 1 70
LayerCount: 2
Fore
SplineSet
340 494 m 1
 257 472 190 395 190 300 c 0
 190 205 257 128 340 106 c 1
 340 494 l 1
390 600 m 0
 555 600 690 465 690 300 c 0
 690 135 555 0 390 0 c 0
 225 0 90 135 90 300 c 0
 90 465 225 600 390 600 c 0
440 106 m 1
 523 128 590 205 590 300 c 0
 590 395 523 472 440 494 c 1
 440 106 l 1
EndSplineSet
EndChar

StartChar: uni2298
Encoding: 102 8856 102
Width: 780
Flags: HW
HStem: 0 100<300.76 479.903> 500 100<300.097 479.24>
VStem: 90 100<210.76 389.903> 590 100<210.097 389.24>
LayerCount: 2
Fore
SplineSet
390 500 m 0
 280 500 190 410 190 300 c 0
 190 264 200 229 218 199 c 1
 491 472 l 1
 461 490 426 500 390 500 c 0
390 100 m 0
 500 100 590 190 590 300 c 0
 590 336 580 371 562 401 c 1
 289 128 l 1
 319 110 354 100 390 100 c 0
390 600 m 0
 555 600 690 465 690 300 c 0
 690 135 555 0 390 0 c 0
 225 0 90 135 90 300 c 0
 90 465 225 600 390 600 c 0
EndSplineSet
EndChar

StartChar: uni29B8
Encoding: 103 10680 103
Width: 780
Flags: HW
HStem: 0 100<300.097 479.24> 500 100<300.76 479.903>
VStem: 90 100<210.097 389.24> 590 100<210.76 389.903>
LayerCount: 2
Fore
SplineSet
190 300 m 0
 190 190 280 100 390 100 c 0
 426 100 461 110 491 128 c 1
 218 401 l 1
 200 371 190 336 190 300 c 0
390 600 m 0
 555 600 690 465 690 300 c 0
 690 135 555 0 390 0 c 0
 225 0 90 135 90 300 c 0
 90 465 225 600 390 600 c 0
590 300 m 0
 590 410 500 500 390 500 c 0
 354 500 319 490 289 472 c 1
 562 199 l 1
 580 229 590 264 590 300 c 0
EndSplineSet
EndChar

StartChar: circleplus
Encoding: 104 8853 104
Width: 780
Flags: HW
HStem: 0 21G<307.5 472.5> 250 100<196 340 440 584>
VStem: 340 100<106 250 350 494>
LayerCount: 2
Fore
SplineSet
340 350 m 1
 340 494 l 1
 270 476 214 420 196 350 c 1
 340 350 l 1
440 350 m 1
 584 350 l 1
 566 420 510 476 440 494 c 1
 440 350 l 1
340 250 m 1
 196 250 l 1
 214 180 270 124 340 106 c 1
 340 250 l 1
440 250 m 1
 440 106 l 1
 510 124 566 180 584 250 c 1
 440 250 l 1
390 600 m 0
 555 600 690 465 690 300 c 0
 690 135 555 0 390 0 c 0
 225 0 90 135 90 300 c 0
 90 465 225 600 390 600 c 0
EndSplineSet
EndChar

StartChar: circlemultiply
Encoding: 105 8855 105
Width: 780
Flags: HW
HStem: 0 100<300.76 479.24> 500 100<300.76 479.24>
VStem: 90 100<210.76 389.24> 590 100<210.76 389.24>
LayerCount: 2
Fore
SplineSet
390 229 m 1
 289 128 l 1
 319 110 354 100 390 100 c 0
 426 100 461 110 491 128 c 1
 390 229 l 1
461 300 m 1
 562 199 l 1
 580 229 590 264 590 300 c 0
 590 336 580 371 562 401 c 1
 461 300 l 1
319 300 m 1
 218 401 l 1
 200 371 190 336 190 300 c 0
 190 264 200 229 218 199 c 1
 319 300 l 1
390 371 m 1
 491 472 l 1
 461 490 426 500 390 500 c 0
 354 500 319 490 289 472 c 1
 390 371 l 1
390 600 m 0
 555 600 690 465 690 300 c 0
 690 135 555 0 390 0 c 0
 225 0 90 135 90 300 c 0
 90 465 225 600 390 600 c 0
EndSplineSet
EndChar

StartChar: uni2299
Encoding: 106 8857 106
Width: 780
Flags: HW
HStem: 0 100<300.097 479.903> 194 212<348.05 431.95> 500 100<300.097 479.903>
VStem: 90 100<210.097 389.903> 284 212<258.05 341.95> 590 100<210.097 389.903>
CounterMasks: 1 fc
LayerCount: 2
Fore
SplineSet
390 600 m 0
 555 600 690 465 690 300 c 0
 690 135 555 0 390 0 c 0
 225 0 90 135 90 300 c 0
 90 465 225 600 390 600 c 0
390 100 m 0
 500 100 590 190 590 300 c 0
 590 410 500 500 390 500 c 0
 280 500 190 410 190 300 c 0
 190 190 280 100 390 100 c 0
496 300 m 0
 496 279 473 255 454 236 c 0
 435 217 411 194 390 194 c 0
 369 194 345 217 326 236 c 0
 308 255 284 279 284 300 c 0
 284 321 308 345 326 364 c 0
 345 383 369 406 390 406 c 0
 411 406 435 383 454 364 c 0
 473 345 496 321 496 300 c 0
EndSplineSet
EndChar

StartChar: uni229A
Encoding: 107 8858 107
Width: 780
Flags: HW
HStem: 0 100<300.097 479.903> 150 100<350.928 429.072> 350 100<350.928 429.072> 500 100<300.097 479.903>
VStem: 90 100<210.097 389.903> 240 100<260.928 339.072> 440 100<260.928 339.072> 590 100<210.097 389.903>
LayerCount: 2
Fore
SplineSet
390 600 m 0
 555 600 690 465 690 300 c 0
 690 135 555 0 390 0 c 0
 225 0 90 135 90 300 c 0
 90 465 225 600 390 600 c 0
390 100 m 0
 500 100 590 190 590 300 c 0
 590 410 500 500 390 500 c 0
 280 500 190 410 190 300 c 0
 190 190 280 100 390 100 c 0
390 450 m 0
 473 450 540 383 540 300 c 0
 540 217 473 150 390 150 c 0
 307 150 240 217 240 300 c 0
 240 383 307 450 390 450 c 0
390 250 m 0
 417 250 440 273 440 300 c 0
 440 327 417 350 390 350 c 0
 363 350 340 327 340 300 c 0
 340 273 363 250 390 250 c 0
EndSplineSet
EndChar

StartChar: uni229B
Encoding: 108 8859 108
Width: 780
Flags: HW
HStem: 0 21G<307.5 472.5>
VStem: 90 100<259.292 340.708> 590 100<259.292 340.708>
LayerCount: 2
Fore
SplineSet
433 375 m 1
 526 446 l 1
 504 467 477 482 449 491 c 1
 433 375 l 1
347 375 m 1
 331 491 l 1
 303 482 276 467 254 446 c 1
 347 375 l 1
303 300 m 1
 195 344 l 1
 192 330 190 315 190 300 c 0
 190 285 192 270 195 256 c 1
 303 300 l 1
347 225 m 1
 254 154 l 1
 276 133 303 118 331 109 c 1
 347 225 l 1
433 225 m 1
 449 109 l 1
 477 118 504 133 526 154 c 1
 433 225 l 1
477 300 m 1
 585 256 l 1
 588 270 590 285 590 300 c 0
 590 315 588 330 585 344 c 1
 477 300 l 1
390 600 m 0
 555 600 690 465 690 300 c 0
 690 135 555 0 390 0 c 0
 225 0 90 135 90 300 c 0
 90 465 225 600 390 600 c 0
EndSplineSet
EndChar

StartChar: uni229D
Encoding: 109 8861 109
Width: 780
Flags: HW
HStem: 0 100<300.097 479.903> 250 100<223 557> 500 100<300.097 479.903>
VStem: 90 100<210.097 389.903> 590 100<210.097 389.903>
CounterMasks: 1 e0
LayerCount: 2
Fore
SplineSet
390 600 m 0
 555 600 690 465 690 300 c 0
 690 135 555 0 390 0 c 0
 225 0 90 135 90 300 c 0
 90 465 225 600 390 600 c 0
390 100 m 0
 500 100 590 190 590 300 c 0
 590 410 500 500 390 500 c 0
 280 500 190 410 190 300 c 0
 190 190 280 100 390 100 c 0
223 250 m 1
 223 350 l 1
 557 350 l 1
 557 250 l 1
 223 250 l 1
EndSplineSet
EndChar

StartChar: uni229C
Encoding: 110 8860 110
Width: 780
Flags: HW
HStem: 0 100<300.602 479.542> 170 100<239 541> 330 100<239 541> 500 100<300.458 479.398>
VStem: 90 100<210.676 389.324> 590 100<210.676 389.324>
LayerCount: 2
Fore
SplineSet
541 430 m 1
 516 459 466 500 390 500 c 0
 353 500 291 489 239 430 c 1
 541 430 l 1
239 170 m 1
 264 141 314 100 390 100 c 0
 427 100 489 111 541 170 c 1
 239 170 l 1
557 190 m 1
 578 222 590 261 590 300 c 0
 590 339 578 378 557 410 c 1
 557 330 l 1
 223 330 l 1
 223 410 l 1
 202 378 190 339 190 300 c 0
 190 261 202 222 223 190 c 1
 223 270 l 1
 557 270 l 1
 557 190 l 1
390 600 m 0
 555 600 690 465 690 300 c 0
 690 135 555 0 390 0 c 0
 225 0 90 135 90 300 c 0
 90 465 225 600 390 600 c 0
EndSplineSet
EndChar

StartChar: emptyset
Encoding: 111 8709 111
Width: 780
Flags: HW
HStem: 0 100<300.202 479.903> 500 100<300.097 479.798>
VStem: 90 100<210.202 389.903> 590 100<210.097 389.798>
LayerCount: 2
Fore
SplineSet
390 500 m 0
 280 500 190 410 190 300 c 0
 190 264 200 228 218 198 c 1
 492 472 l 1
 462 490 426 500 390 500 c 0
390 100 m 0
 500 100 590 190 590 300 c 0
 590 336 580 372 562 402 c 1
 288 128 l 1
 318 110 354 100 390 100 c 0
90 300 m 0
 90 465 225 600 390 600 c 0
 453 600 514 580 564 544 c 1
 626 606 l 1
 696 536 l 1
 634 474 l 1
 670 424 690 363 690 300 c 0
 690 135 555 0 390 0 c 0
 327 0 266 20 216 56 c 1
 154 -6 l 1
 84 64 l 1
 146 126 l 1
 110 176 90 237 90 300 c 0
EndSplineSet
EndChar

StartChar: uni29B0
Encoding: 112 10672 112
Width: 780
Flags: HW
HStem: 0 100<300.097 479.798> 500 100<300.202 479.903>
VStem: 90 100<210.097 389.798> 590 100<210.202 389.903>
LayerCount: 2
Fore
SplineSet
190 300 m 0
 190 190 280 100 390 100 c 0
 426 100 462 110 492 128 c 1
 218 402 l 1
 200 372 190 336 190 300 c 0
590 300 m 0
 590 410 500 500 390 500 c 0
 354 500 318 490 288 472 c 1
 562 198 l 1
 580 228 590 264 590 300 c 0
390 600 m 0
 555 600 690 465 690 300 c 0
 690 237 670 176 634 126 c 1
 696 64 l 1
 626 -6 l 1
 564 56 l 1
 514 20 453 0 390 0 c 0
 225 0 90 135 90 300 c 0
 90 363 110 424 146 474 c 1
 84 536 l 1
 154 606 l 1
 216 544 l 1
 266 580 327 600 390 600 c 0
EndSplineSet
EndChar

StartChar: uni25EF
Encoding: 113 9711 113
Width: 1044
Flags: HW
HStem: -132 100<406.143 638.457> 632 100<406.544 638.057>
VStem: 90 100<184.143 416.457> 854 100<184.544 416.057>
LayerCount: 2
Fore
SplineSet
522 732 m 0
 759 732 954 537 954 300 c 0
 954 63 759 -132 522 -132 c 0
 285 -132 90 63 90 300 c 0
 90 537 285 732 522 732 c 0
522 -32 m 0
 708 -32 854 119 854 300 c 0
 854 484 706 632 522 632 c 0
 341 632 190 486 190 300 c 0
 190 117 339 -32 522 -32 c 0
EndSplineSet
EndChar

StartChar: uni2B24
Encoding: 114 11044 114
Width: 1044
Flags: HW
HStem: -132 864<394.126 649.874>
VStem: 90 864<172.126 427.874>
LayerCount: 2
Fore
SplineSet
522 732 m 0
 759 732 954 537 954 300 c 0
 954 63 759 -132 522 -132 c 0
 285 -132 90 63 90 300 c 0
 90 537 285 732 522 732 c 0
EndSplineSet
EndChar

StartChar: uni25AB
Encoding: 115 9643 115
Width: 519
Flags: HW
HStem: 130 100<190 329> 370 100<190 329>
VStem: 90 100<230 370> 329 100<230 370>
LayerCount: 2
Fore
SplineSet
429 470 m 1
 429 130 l 1
 90 130 l 1
 90 470 l 1
 429 470 l 1
329 370 m 1
 190 370 l 1
 190 230 l 1
 329 230 l 1
 329 370 l 1
EndSplineSet
EndChar

StartChar: uni25AA
Encoding: 116 9642 116
Width: 519
Flags: HW
HStem: 130 340<90 429>
VStem: 90 339<130 470>
LayerCount: 2
Fore
SplineSet
429 470 m 1
 429 130 l 1
 90 130 l 1
 90 470 l 1
 429 470 l 1
EndSplineSet
EndChar

StartChar: uni25A1
Encoding: 117 9633 117
Width: 710
Flags: HW
HStem: 35 100<190 520> 465 100<190 520>
VStem: 90 100<135 465> 520 100<135 465>
LayerCount: 2
Fore
SplineSet
620 565 m 1
 620 35 l 1
 90 35 l 1
 90 565 l 1
 620 565 l 1
520 465 m 1
 190 465 l 1
 190 135 l 1
 520 135 l 1
 520 465 l 1
EndSplineSet
EndChar

StartChar: uni25A0
Encoding: 118 9632 118
Width: 710
Flags: HW
HStem: 35 530<90 620>
VStem: 90 530<35 565>
LayerCount: 2
Fore
SplineSet
620 565 m 1
 620 35 l 1
 90 35 l 1
 90 565 l 1
 620 565 l 1
EndSplineSet
EndChar

StartChar: uni229F
Encoding: 119 8863 119
Width: 710
Flags: HW
HStem: 35 100<190 520> 250 100<190 520> 465 100<190 520>
VStem: 90 100<135 250 350 465> 520 100<135 250 350 465>
CounterMasks: 1 e0
LayerCount: 2
Fore
SplineSet
520 250 m 1
 190 250 l 1
 190 135 l 1
 520 135 l 1
 520 250 l 1
620 565 m 1
 620 35 l 1
 90 35 l 1
 90 565 l 1
 620 565 l 1
520 465 m 1
 190 465 l 1
 190 350 l 1
 520 350 l 1
 520 465 l 1
EndSplineSet
EndChar

StartChar: uni25EB
Encoding: 120 9707 120
Width: 710
Flags: HW
HStem: 35 100<190 305 405 520> 465 100<190 305 405 520>
VStem: 90 100<135 465> 305 100<135 465> 520 100<135 465>
CounterMasks: 1 38
LayerCount: 2
Fore
SplineSet
305 135 m 1
 305 465 l 1
 190 465 l 1
 190 135 l 1
 305 135 l 1
405 135 m 1
 520 135 l 1
 520 465 l 1
 405 465 l 1
 405 135 l 1
620 565 m 1
 620 35 l 1
 90 35 l 1
 90 565 l 1
 620 565 l 1
EndSplineSet
EndChar

StartChar: uni29C4
Encoding: 121 10692 121
Width: 710
Flags: HW
HStem: 35 100<261 520> 465 100<190 449>
VStem: 90 100<205 465> 520 100<135 394>
LayerCount: 2
Fore
SplineSet
190 205 m 1
 449 465 l 1
 190 465 l 1
 190 205 l 1
520 394 m 1
 261 135 l 1
 520 135 l 1
 520 394 l 1
620 565 m 1
 620 35 l 1
 90 35 l 1
 90 565 l 1
 620 565 l 1
EndSplineSet
EndChar

StartChar: uni29C5
Encoding: 122 10693 122
Width: 710
Flags: HW
HStem: 35 100<190 449> 465 100<261 520>
VStem: 90 100<135 395> 520 100<206 465>
LayerCount: 2
Fore
SplineSet
449 135 m 1
 190 395 l 1
 190 135 l 1
 449 135 l 1
520 206 m 1
 520 465 l 1
 261 465 l 1
 520 206 l 1
620 565 m 1
 620 35 l 1
 90 35 l 1
 90 565 l 1
 620 565 l 1
EndSplineSet
EndChar

StartChar: uni229E
Encoding: 123 8862 123
Width: 710
Flags: HW
HStem: 35 100<190 305 405 520> 250 100<190 305 405 520> 465 100<190 305 405 520>
VStem: 90 100<135 250 350 465> 305 100<135 250 350 465> 520 100<135 250 350 465>
CounterMasks: 1 fc
LayerCount: 2
Fore
SplineSet
305 250 m 1
 190 250 l 1
 190 135 l 1
 305 135 l 1
 305 250 l 1
405 250 m 1
 405 135 l 1
 520 135 l 1
 520 250 l 1
 405 250 l 1
305 350 m 1
 305 465 l 1
 190 465 l 1
 190 350 l 1
 305 350 l 1
405 350 m 1
 520 350 l 1
 520 465 l 1
 405 465 l 1
 405 350 l 1
620 565 m 1
 620 35 l 1
 90 35 l 1
 90 565 l 1
 620 565 l 1
EndSplineSet
EndChar

StartChar: uni22A0
Encoding: 124 8864 124
Width: 710
Flags: HW
HStem: 35 100<261 449> 465 100<261 449>
VStem: 90 100<205 395> 520 100<206 394>
LayerCount: 2
Fore
SplineSet
355 229 m 1
 261 135 l 1
 449 135 l 1
 355 229 l 1
426 300 m 1
 520 206 l 1
 520 394 l 1
 426 300 l 1
285 300 m 1
 190 395 l 1
 190 205 l 1
 285 300 l 1
355 371 m 1
 449 465 l 1
 261 465 l 1
 355 371 l 1
620 565 m 1
 620 35 l 1
 90 35 l 1
 90 565 l 1
 620 565 l 1
EndSplineSet
EndChar

StartChar: uni22A1
Encoding: 125 8865 125
Width: 710
Flags: HW
HStem: 35 100<190 520> 194 212<313.313 396.95> 465 100<190 520>
VStem: 90 100<135 465> 249 212<258.05 341.95> 520 100<135 465>
CounterMasks: 1 fc
LayerCount: 2
Fore
SplineSet
620 565 m 1
 620 35 l 1
 90 35 l 1
 90 565 l 1
 620 565 l 1
520 465 m 1
 190 465 l 1
 190 135 l 1
 520 135 l 1
 520 465 l 1
461 300 m 0
 461 279 438 255 419 236 c 0
 400 217 376 194 355 194 c 0
 334 194 310 217 292 236 c 0
 273 255 249 279 249 300 c 0
 249 321 273 345 292 364 c 0
 310 383 334 406 355 406 c 0
 376 406 400 383 419 364 c 0
 438 345 461 321 461 300 c 0
EndSplineSet
EndChar

StartChar: uni29C8
Encoding: 126 10696 126
Width: 710
Flags: HW
HStem: 35 100<190 520> 174 80<309 401> 346 80<309 401> 465 100<190 520>
VStem: 90 100<135 465> 229 80<254 346> 401 80<254 346> 520 100<135 465>
LayerCount: 2
Fore
SplineSet
620 565 m 1
 620 35 l 1
 90 35 l 1
 90 565 l 1
 620 565 l 1
520 465 m 1
 190 465 l 1
 190 135 l 1
 520 135 l 1
 520 465 l 1
481 426 m 1
 481 174 l 1
 229 174 l 1
 229 426 l 1
 481 426 l 1
401 346 m 1
 309 346 l 1
 309 254 l 1
 401 254 l 1
 401 346 l 1
EndSplineSet
EndChar

StartChar: uni2B1C
Encoding: 127 11036 127
Width: 944
Flags: HW
HStem: -82 100<190 754> 582 100<190 754>
VStem: 90 100<18 582> 754 100<18 582>
LayerCount: 2
Fore
SplineSet
854 682 m 1
 854 -82 l 1
 90 -82 l 1
 90 682 l 1
 854 682 l 1
754 582 m 1
 190 582 l 1
 190 18 l 1
 754 18 l 1
 754 582 l 1
EndSplineSet
EndChar

StartChar: uni2B1B
Encoding: 128 11035 128
Width: 944
Flags: HW
HStem: -82 764<90 854>
VStem: 90 764<-82 682>
LayerCount: 2
Fore
SplineSet
854 682 m 1
 854 -82 l 1
 90 -82 l 1
 90 682 l 1
 854 682 l 1
EndSplineSet
EndChar

StartChar: uni22C4
Encoding: 129 8900 129
Width: 660
Flags: HW
LayerCount: 2
Fore
SplineSet
330 561 m 1
 591 300 l 1
 330 39 l 1
 69 300 l 1
 330 561 l 1
330 419 m 1
 211 300 l 1
 330 181 l 1
 449 300 l 1
 330 419 l 1
EndSplineSet
EndChar

StartChar: uni2B29
Encoding: 130 11049 130
Width: 660
Flags: HW
LayerCount: 2
Fore
SplineSet
330 561 m 1
 591 300 l 1
 330 39 l 1
 69 300 l 1
 330 561 l 1
EndSplineSet
EndChar

StartChar: uni25C7
Encoding: 131 9671 131
Width: 930
Flags: HW
LayerCount: 2
Fore
SplineSet
465 696 m 1
 861 300 l 1
 465 -96 l 1
 69 300 l 1
 465 696 l 1
465 554 m 1
 211 300 l 1
 465 46 l 1
 719 300 l 1
 465 554 l 1
EndSplineSet
EndChar

StartChar: uni25C6
Encoding: 132 9670 132
Width: 930
Flags: HW
LayerCount: 2
Fore
SplineSet
465 696 m 1
 861 300 l 1
 465 -96 l 1
 69 300 l 1
 465 696 l 1
EndSplineSet
EndChar

StartChar: sym011
Encoding: 133 -1 133
Width: 930
Flags: HW
HStem: 250 100<261 669>
LayerCount: 2
Fore
SplineSet
669 250 m 1
 261 250 l 1
 465 46 l 1
 669 250 l 1
669 350 m 1
 465 554 l 1
 261 350 l 1
 669 350 l 1
465 696 m 1
 861 300 l 1
 465 -96 l 1
 69 300 l 1
 465 696 l 1
EndSplineSet
EndChar

StartChar: sym012
Encoding: 134 -1 134
Width: 930
Flags: HW
VStem: 415 100<96 504>
LayerCount: 2
Fore
SplineSet
415 96 m 1
 415 504 l 1
 211 300 l 1
 415 96 l 1
515 504 m 1
 515 96 l 1
 719 300 l 1
 515 504 l 1
465 696 m 1
 861 300 l 1
 465 -96 l 1
 69 300 l 1
 465 696 l 1
EndSplineSet
EndChar

StartChar: sym013
Encoding: 135 -1 135
Width: 930
Flags: HW
LayerCount: 2
Fore
SplineSet
628 392 m 1
 374 138 l 1
 465 46 l 1
 719 300 l 1
 628 392 l 1
465 696 m 1
 861 300 l 1
 465 -96 l 1
 69 300 l 1
 465 696 l 1
465 554 m 1
 211 300 l 1
 302 208 l 1
 556 462 l 1
 465 554 l 1
EndSplineSet
EndChar

StartChar: sym014
Encoding: 136 -1 136
Width: 930
Flags: HW
LayerCount: 2
Fore
SplineSet
556 138 m 1
 302 392 l 1
 211 300 l 1
 465 46 l 1
 556 138 l 1
628 208 m 1
 719 300 l 1
 465 554 l 1
 374 462 l 1
 628 208 l 1
465 696 m 1
 861 300 l 1
 465 -96 l 1
 69 300 l 1
 465 696 l 1
EndSplineSet
EndChar

StartChar: sym015
Encoding: 137 -1 137
Width: 930
Flags: HW
HStem: 250 100<261 415 515 669>
VStem: 415 100<96 250 350 504>
LayerCount: 2
Fore
SplineSet
415 250 m 1
 261 250 l 1
 415 96 l 1
 415 250 l 1
515 250 m 1
 515 96 l 1
 669 250 l 1
 515 250 l 1
415 350 m 1
 415 504 l 1
 261 350 l 1
 415 350 l 1
515 350 m 1
 669 350 l 1
 515 504 l 1
 515 350 l 1
465 696 m 1
 861 300 l 1
 465 -96 l 1
 69 300 l 1
 465 696 l 1
EndSplineSet
EndChar

StartChar: sym016
Encoding: 138 -1 138
Width: 930
Flags: HW
LayerCount: 2
Fore
SplineSet
465 229 m 1
 374 138 l 1
 465 46 l 1
 556 138 l 1
 465 229 l 1
536 300 m 1
 628 208 l 1
 719 300 l 1
 628 392 l 1
 536 300 l 1
394 300 m 1
 302 392 l 1
 211 300 l 1
 302 208 l 1
 394 300 l 1
465 371 m 1
 556 462 l 1
 465 554 l 1
 374 462 l 1
 465 371 l 1
465 696 m 1
 861 300 l 1
 465 -96 l 1
 69 300 l 1
 465 696 l 1
EndSplineSet
EndChar

StartChar: uni27D0
Encoding: 139 10192 139
Width: 930
Flags: HW
HStem: 194 212<423.05 506.95>
VStem: 359 212<258.05 341.95>
LayerCount: 2
Fore
SplineSet
465 696 m 1
 861 300 l 1
 465 -96 l 1
 69 300 l 1
 465 696 l 1
465 554 m 1
 211 300 l 1
 465 46 l 1
 719 300 l 1
 465 554 l 1
571 300 m 0
 571 279 548 255 529 236 c 0
 510 217 486 194 465 194 c 0
 444 194 420 217 401 236 c 0
 383 255 359 279 359 300 c 0
 359 321 383 345 401 364 c 0
 420 383 444 406 465 406 c 0
 486 406 510 383 529 364 c 0
 548 345 571 321 571 300 c 0
EndSplineSet
EndChar

StartChar: sym017
Encoding: 140 -1 140
Width: 930
Flags: HW
LayerCount: 2
Fore
SplineSet
465 696 m 1
 861 300 l 1
 465 -96 l 1
 69 300 l 1
 465 696 l 1
465 554 m 1
 211 300 l 1
 465 46 l 1
 719 300 l 1
 465 554 l 1
465 487 m 1
 652 300 l 1
 465 113 l 1
 278 300 l 1
 465 487 l 1
465 373 m 1
 392 300 l 1
 465 227 l 1
 538 300 l 1
 465 373 l 1
EndSplineSet
EndChar

StartChar: uni2B2B
Encoding: 141 11051 141
Width: 580
Flags: HW
LayerCount: 2
Fore
SplineSet
90 300 m 1
 290 620 l 1
 490 300 l 1
 290 -20 l 1
 90 300 l 1
208 300 m 1
 290 169 l 1
 372 300 l 1
 290 431 l 1
 208 300 l 1
EndSplineSet
EndChar

StartChar: uni2B2A
Encoding: 142 11050 142
Width: 580
Flags: HW
LayerCount: 2
Fore
SplineSet
90 300 m 1
 290 620 l 1
 490 300 l 1
 290 -20 l 1
 90 300 l 1
EndSplineSet
EndChar

StartChar: lozenge
Encoding: 143 9674 143
Width: 710
Flags: HW
LayerCount: 2
Fore
SplineSet
90 300 m 1
 355 724 l 1
 620 300 l 1
 355 -124 l 1
 90 300 l 1
208 300 m 1
 355 64 l 1
 502 300 l 1
 355 536 l 1
 208 300 l 1
EndSplineSet
EndChar

StartChar: uni29EB
Encoding: 144 10731 144
Width: 710
Flags: HW
LayerCount: 2
Fore
SplineSet
90 300 m 1
 355 724 l 1
 620 300 l 1
 355 -124 l 1
 90 300 l 1
EndSplineSet
EndChar

StartChar: uni27E0
Encoding: 145 10208 145
Width: 710
Flags: HW
HStem: 250 100<239 471>
LayerCount: 2
Fore
SplineSet
471 250 m 1
 239 250 l 1
 355 64 l 1
 471 250 l 1
239 350 m 1
 471 350 l 1
 355 536 l 1
 239 350 l 1
90 300 m 1
 355 724 l 1
 620 300 l 1
 355 -124 l 1
 90 300 l 1
EndSplineSet
EndChar

StartChar: uni2B52
Encoding: 146 11090 146
Width: 780
Flags: HW
HStem: 301 80<289 308 472 491>
LayerCount: 2
Fore
SplineSet
390 618 m 1
 472 381 l 1
 723 376 l 1
 523 225 l 1
 596 -15 l 1
 390 128 l 1
 184 -15 l 1
 257 225 l 1
 57 376 l 1
 308 381 l 1
 390 618 l 1
390 375 m 1
 365 303 l 1
 289 301 l 1
 350 255 l 1
 327 182 l 1
 390 226 l 1
 453 182 l 1
 430 255 l 1
 491 301 l 1
 415 303 l 1
 390 375 l 1
EndSplineSet
EndChar

StartChar: uni22C6
Encoding: 147 8902 147
Width: 660
Flags: HW
LayerCount: 2
Fore
SplineSet
330 564 m 1
 398 367 l 1
 606 363 l 1
 440 238 l 1
 500 39 l 1
 330 158 l 1
 160 39 l 1
 220 238 l 1
 54 363 l 1
 262 367 l 1
 330 564 l 1
EndSplineSet
EndChar

StartChar: uni2B50
Encoding: 148 11088 148
Width: 930
Flags: HW
LayerCount: 2
Fore
SplineSet
465 686 m 1
 565 399 l 1
 869 393 l 1
 627 209 l 1
 715 -82 l 1
 465 91 l 1
 215 -82 l 1
 303 209 l 1
 61 393 l 1
 365 399 l 1
 465 686 l 1
465 382 m 1
 437 300 l 1
 350 299 l 1
 419 246 l 1
 394 164 l 1
 465 213 l 1
 536 164 l 1
 511 246 l 1
 580 299 l 1
 493 300 l 1
 465 382 l 1
EndSplineSet
EndChar

StartChar: uni2B51
Encoding: 149 11089 149
Width: 930
Flags: HW
LayerCount: 2
Fore
SplineSet
465 686 m 1
 565 399 l 1
 869 393 l 1
 627 209 l 1
 715 -82 l 1
 465 91 l 1
 215 -82 l 1
 303 209 l 1
 61 393 l 1
 365 399 l 1
 465 686 l 1
EndSplineSet
EndChar

StartChar: uni2606
Encoding: 150 9734 150
Width: 1260
Flags: HW
HStem: -231 21G<289.089 311.797 948.203 970.911> 335 102<359 491 769 901>
LayerCount: 2
Fore
SplineSet
630 836 m 1
 769 437 l 1
 1191 429 l 1
 854 173 l 1
 977 -231 l 1
 630 10 l 1
 283 -231 l 1
 406 173 l 1
 69 429 l 1
 491 437 l 1
 630 836 l 1
630 532 m 1
 563 339 l 1
 359 335 l 1
 521 211 l 1
 462 15 l 1
 630 132 l 1
 798 15 l 1
 739 211 l 1
 901 335 l 1
 697 339 l 1
 630 532 l 1
EndSplineSet
EndChar

StartChar: uni2605
Encoding: 151 9733 151
Width: 1260
Flags: HW
HStem: -231 21G<289.089 311.797 948.203 970.911>
LayerCount: 2
Fore
SplineSet
630 836 m 1
 769 437 l 1
 1191 429 l 1
 854 173 l 1
 977 -231 l 1
 630 10 l 1
 283 -231 l 1
 406 173 l 1
 69 429 l 1
 491 437 l 1
 630 836 l 1
EndSplineSet
EndChar

StartChar: asteriskmath
Encoding: 152 8727 152
Width: 660
Flags: HW
LayerCount: 2
Fore
SplineSet
418 300 m 1
 571 238 l 1
 505 122 l 1
 374 224 l 1
 397 60 l 1
 263 60 l 1
 286 224 l 1
 155 122 l 1
 89 238 l 1
 242 300 l 1
 89 362 l 1
 155 478 l 1
 286 376 l 1
 263 540 l 1
 397 540 l 1
 374 376 l 1
 505 478 l 1
 571 362 l 1
 418 300 l 1
EndSplineSet
EndChar

StartChar: infinity
Encoding: 153 8734 153
Width: 1044
Flags: HW
HStem: 51 100<238.102 356.463 687.859 805.898> 449 100<238.102 356.463 687.859 805.898>
VStem: 90 100<205.852 394.148> 854 100<205.852 394.148>
LayerCount: 2
Fore
SplineSet
587 300 m 1
 636 234 670 151 751 151 c 0
 818 151 854 225 854 300 c 0
 854 375 818 449 751 449 c 0
 670 449 636 366 587 300 c 1
522 374 m 1
 589 455 647 549 751 549 c 0
 873 549 954 430 954 300 c 0
 954 170 873 51 751 51 c 0
 647 51 589 145 522 226 c 1
 455 145 397 51 293 51 c 0
 171 51 90 170 90 300 c 0
 90 430 171 549 293 549 c 0
 397 549 455 455 522 374 c 1
457 300 m 1
 409 366 375 449 293 449 c 0
 226 449 190 375 190 300 c 0
 190 225 226 151 293 151 c 0
 375 151 409 234 457 300 c 1
EndSplineSet
EndChar

StartChar: proportional
Encoding: 154 8733 154
Width: 948
Flags: HW
HStem: 51 100<239.562 358.003 693.369 858> 449 100<239.562 358.003 693.369 858>
VStem: 90 100<207.25 392.75>
LayerCount: 2
Fore
SplineSet
458 300 m 1
 410 366 376 449 295 449 c 0
 227 449 190 375 190 300 c 0
 190 225 227 151 295 151 c 0
 376 151 410 234 458 300 c 1
858 549 m 1
 858 449 l 1
 760 449 l 2
 677 449 638 367 587 300 c 1
 638 233 677 151 760 151 c 2
 858 151 l 1
 858 51 l 1
 760 51 l 2
 654 51 592 146 522 227 c 1
 455 147 399 51 295 51 c 0
 173 51 90 170 90 300 c 0
 90 430 173 549 295 549 c 0
 399 549 455 453 522 373 c 1
 592 454 654 549 760 549 c 2
 858 549 l 1
EndSplineSet
EndChar

StartChar: sym018
Encoding: 155 -1 155
Width: 948
Flags: HW
HStem: 51 100<90 254.631 589.997 708.438> 449 100<90 254.631 589.997 708.438>
VStem: 758 100<207.25 392.75>
LayerCount: 2
Fore
SplineSet
490 300 m 1
 538 234 572 151 653 151 c 0
 721 151 758 225 758 300 c 0
 758 375 721 449 653 449 c 0
 572 449 538 366 490 300 c 1
90 51 m 1
 90 151 l 1
 188 151 l 2
 271 151 310 233 361 300 c 1
 310 367 271 449 188 449 c 2
 90 449 l 1
 90 549 l 1
 188 549 l 2
 294 549 356 454 426 373 c 1
 493 453 549 549 653 549 c 0
 775 549 858 430 858 300 c 0
 858 170 775 51 653 51 c 0
 549 51 493 147 426 227 c 1
 356 146 294 51 188 51 c 2
 90 51 l 1
EndSplineSet
EndChar

StartChar: sym019
Encoding: 156 -1 156
Width: 852
Flags: HW
HStem: 51 100<90 254.631 597.369 762> 449 100<90 254.631 597.369 762>
LayerCount: 2
Fore
SplineSet
90 549 m 1
 188 549 l 2
 294 549 356 454 426 373 c 1
 496 454 558 549 664 549 c 2
 762 549 l 1
 762 449 l 1
 664 449 l 2
 581 449 542 367 491 300 c 1
 542 233 581 151 664 151 c 2
 762 151 l 1
 762 51 l 1
 664 51 l 2
 558 51 496 146 426 227 c 1
 356 146 294 51 188 51 c 2
 90 51 l 1
 90 151 l 1
 188 151 l 2
 271 151 310 233 361 300 c 1
 310 367 271 449 188 449 c 2
 90 449 l 1
 90 549 l 1
EndSplineSet
EndChar

StartChar: uni226C
Encoding: 157 8812 157
Width: 479
Flags: HW
VStem: 90 100<195.199 404.801> 289 100<192.067 407.933>
LayerCount: 2
Fore
SplineSet
240 460 m 1
 209 412 190 358 190 300 c 0
 190 242 209 188 240 140 c 1
 271 188 289 242 289 300 c 0
 289 358 271 412 240 460 c 1
369 5 m 1
 309 -75 l 1
 285 -57 262 -37 240 -16 c 1
 218 -37 194 -57 170 -75 c 1
 110 5 l 1
 132 22 154 40 174 60 c 1
 123 131 90 212 90 300 c 0
 90 388 123 469 174 540 c 1
 154 560 132 578 110 595 c 1
 170 675 l 1
 194 657 218 637 240 616 c 1
 262 637 285 657 309 675 c 1
 369 595 l 1
 347 578 325 560 305 540 c 1
 356 469 389 388 389 300 c 0
 389 212 356 131 305 60 c 1
 325 40 347 22 369 5 c 1
EndSplineSet
EndChar

StartChar: uni22BA
Encoding: 158 8890 158
Width: 578
Flags: HW
HStem: -220 21G<239 339> 446 100<90 239 339 488>
VStem: 239 100<-220 446>
LayerCount: 2
Fore
SplineSet
339 -220 m 1
 239 -220 l 1
 239 446 l 1
 90 446 l 1
 90 546 l 1
 488 546 l 1
 488 446 l 1
 339 446 l 1
 339 -220 l 1
EndSplineSet
EndChar

StartChar: uni2240
Encoding: 159 8768 159
Width: 413
Flags: HW
VStem: 90 100<134.884 232.918> 223 100<367.082 465.116>
LayerCount: 2
Fore
SplineSet
154 505 m 1
 206 570 l 1
 259 527 323 486 323 418 c 0
 323 358 285 306 241 264 c 0
 217 240 190 215 190 182 c 0
 190 142 228 120 259 95 c 1
 206 30 l 1
 154 73 90 114 90 182 c 0
 90 242 128 294 172 336 c 0
 196 360 223 385 223 418 c 0
 223 458 184 480 154 505 c 1
EndSplineSet
EndChar

StartChar: angle
Encoding: 160 8736 160
Width: 720
Flags: HW
HStem: 30 100<205 630>
LayerCount: 2
Fore
SplineSet
630 130 m 1
 630 30 l 1
 99 30 l 1
 68 130 l 1
 485 578 l 1
 559 510 l 1
 205 130 l 1
 630 130 l 1
EndSplineSet
EndChar

StartChar: uni29A3
Encoding: 161 10659 161
Width: 720
Flags: HW
HStem: 30 100<90 515>
LayerCount: 2
Fore
SplineSet
90 130 m 1
 515 130 l 1
 161 510 l 1
 235 578 l 1
 652 130 l 1
 621 30 l 1
 90 30 l 1
 90 130 l 1
EndSplineSet
EndChar

StartChar: uni2221
Encoding: 162 8737 162
Width: 720
Flags: HW
HStem: 30 100<205 396 494.255 630>
VStem: 396 101<130 202.555>
LayerCount: 2
Fore
SplineSet
396 130 m 1
 388 181 367 229 335 270 c 1
 205 130 l 1
 396 130 l 1
630 130 m 1
 630 30 l 1
 99 30 l 1
 68 130 l 1
 485 578 l 1
 559 510 l 1
 404 344 l 1
 455 284 487 209 497 130 c 1
 630 130 l 1
EndSplineSet
EndChar

StartChar: uni299B
Encoding: 163 10651 163
Width: 720
Flags: HW
HStem: 30 100<90 225.745 324 515>
VStem: 223 101<130 202.555>
LayerCount: 2
Fore
SplineSet
385 270 m 1
 353 229 332 181 324 130 c 1
 515 130 l 1
 385 270 l 1
316 344 m 1
 161 510 l 1
 235 578 l 1
 652 130 l 1
 621 30 l 1
 90 30 l 1
 90 130 l 1
 223 130 l 1
 233 209 265 284 316 344 c 1
EndSplineSet
EndChar

StartChar: uni2222
Encoding: 164 8738 164
Width: 720
Flags: HW
HStem: 536 20G<544.446 598.011>
VStem: 447 100<225.429 374.571>
LayerCount: 2
Fore
SplineSet
432 224 m 1
 442 248 447 274 447 300 c 0
 447 326 442 352 432 376 c 1
 262 300 l 1
 432 224 l 1
589 556 m 1
 630 465 l 1
 523 417 l 1
 539 380 547 340 547 300 c 0
 547 260 539 220 523 183 c 1
 630 135 l 1
 589 44 l 1
 90 268 l 1
 90 332 l 1
 589 556 l 1
EndSplineSet
EndChar

StartChar: uni29A1
Encoding: 165 10657 165
Width: 720
Flags: HW
HStem: 387 100<285.429 434.571>
LayerCount: 2
Fore
SplineSet
436 372 m 1
 412 382 386 387 360 387 c 0
 334 387 308 382 284 372 c 1
 360 202 l 1
 436 372 l 1
104 529 m 1
 195 570 l 1
 243 463 l 1
 280 479 320 487 360 487 c 0
 400 487 440 479 477 463 c 1
 525 570 l 1
 616 529 l 1
 392 30 l 1
 328 30 l 1
 104 529 l 1
EndSplineSet
EndChar

StartChar: uni29A0
Encoding: 166 10656 166
Width: 720
Flags: HW
HStem: 536 20G<121.989 175.554>
VStem: 173 100<225.429 374.571>
LayerCount: 2
Fore
SplineSet
288 376 m 1
 278 352 273 326 273 300 c 0
 273 274 278 248 288 224 c 1
 458 300 l 1
 288 376 l 1
131 44 m 1
 90 135 l 1
 197 183 l 1
 181 220 173 260 173 300 c 0
 173 340 181 380 197 417 c 1
 90 465 l 1
 131 556 l 1
 630 332 l 1
 630 268 l 1
 131 44 l 1
EndSplineSet
EndChar

StartChar: sym01A
Encoding: 167 -1 167
Width: 720
Flags: HW
HStem: 113 100<285.429 434.571>
LayerCount: 2
Fore
SplineSet
284 228 m 1
 308 218 334 213 360 213 c 0
 386 213 412 218 436 228 c 1
 360 398 l 1
 284 228 l 1
616 71 m 1
 525 30 l 1
 477 137 l 1
 440 121 400 113 360 113 c 0
 320 113 280 121 243 137 c 1
 195 30 l 1
 104 71 l 1
 328 570 l 1
 392 570 l 1
 616 71 l 1
EndSplineSet
EndChar

StartChar: uni221F
Encoding: 168 8735 168
Width: 720
Flags: HW
HStem: 30 100<190 630>
VStem: 90 100<130 570>
LayerCount: 2
Fore
SplineSet
90 570 m 1
 190 570 l 1
 190 130 l 1
 630 130 l 1
 630 30 l 1
 90 30 l 1
 90 570 l 1
EndSplineSet
EndChar

StartChar: uni22BE
Encoding: 169 8894 169
Width: 720
Flags: HW
HStem: 30 100<190 354 454 630> 294 100<190 268.579>
VStem: 90 100<130 294 394 570> 354 100<130 208.579>
LayerCount: 2
Fore
SplineSet
354 130 m 1
 354 221 281 294 190 294 c 1
 190 130 l 1
 354 130 l 1
90 570 m 1
 190 570 l 1
 190 394 l 1
 336 394 454 276 454 130 c 1
 630 130 l 1
 630 30 l 1
 90 30 l 1
 90 570 l 1
EndSplineSet
EndChar

StartChar: uni299C
Encoding: 170 10652 170
Width: 720
Flags: HW
HStem: 30 100<190 310 410 630> 250 100<190 310>
VStem: 90 100<130 250 350 570> 310 100<130 250>
LayerCount: 2
Fore
SplineSet
310 250 m 1
 190 250 l 1
 190 130 l 1
 310 130 l 1
 310 250 l 1
90 570 m 1
 190 570 l 1
 190 350 l 1
 410 350 l 1
 410 130 l 1
 630 130 l 1
 630 30 l 1
 90 30 l 1
 90 570 l 1
EndSplineSet
EndChar

StartChar: uni299D
Encoding: 171 10653 171
Width: 720
Flags: HW
HStem: 30 100<190 354 454 630> 137 106<216.814 283.186> 294 100<190 268.579>
VStem: 90 100<130 294 394 570> 197 106<156.814 223.186> 354 100<130 208.579>
LayerCount: 2
Fore
SplineSet
354 130 m 1
 354 221 281 294 190 294 c 1
 190 130 l 1
 354 130 l 1
90 570 m 1
 190 570 l 1
 190 394 l 1
 336 394 454 276 454 130 c 1
 630 130 l 1
 630 30 l 1
 90 30 l 1
 90 570 l 1
250 243 m 0
 265 243 303 205 303 190 c 0
 303 175 265 137 250 137 c 0
 235 137 197 175 197 190 c 0
 197 205 235 243 250 243 c 0
EndSplineSet
EndChar

StartChar: minute
Encoding: 172 8242 172
Width: 280
Flags: HW
VStem: 60 220
LayerCount: 2
Fore
SplineSet
280 603 m 1
 193 67 l 1
 60 67 l 1
 120 603 l 1
 280 603 l 1
EndSplineSet
EndChar

StartChar: uni2035
Encoding: 173 8245 173
Width: 280
Flags: HW
VStem: 0 220
LayerCount: 2
Fore
SplineSet
0 603 m 1
 160 603 l 1
 220 67 l 1
 87 67 l 1
 0 603 l 1
EndSplineSet
EndChar

StartChar: product.small
Encoding: 174 -1 174
Width: 720
Flags: HW
HStem: 30 62<101 134.925 272.075 306 414 447.925 585.075 619> 470 100<272 448> 508 62<93 134.931 585.069 627>
VStem: 135 137<98.8941 470> 448 137<98.8941 470>
LayerCount: 2
Fore
SplineSet
101 30 m 1xd8
 90 92 l 1
 109 97 135 104 135 115 c 2
 135 485 l 2
 135 496 111 503 93 508 c 1
 90 570 l 1
 630 570 l 1
 627 508 l 1xb8
 609 503 585 496 585 485 c 2
 585 115 l 2
 585 104 611 97 630 92 c 1
 619 30 l 1
 414 30 l 1
 403 92 l 1
 422 97 448 104 448 115 c 2
 448 470 l 1
 272 470 l 1
 272 115 l 2
 272 104 298 97 317 92 c 1
 306 30 l 1
 101 30 l 1xd8
EndSplineSet
EndChar

StartChar: product.sf.small
Encoding: 175 -1 175
Width: 720
Flags: HW
HStem: 437 133<90 140 273 447 580 630>
VStem: 140 133<30 437> 447 133<30 437>
LayerCount: 2
Fore
SplineSet
140 30 m 1
 140 437 l 1
 90 437 l 1
 90 570 l 1
 630 570 l 1
 630 437 l 1
 580 437 l 1
 580 30 l 1
 447 30 l 1
 447 437 l 1
 273 437 l 1
 273 30 l 1
 140 30 l 1
EndSplineSet
EndChar

StartChar: uni2A3F
Encoding: 176 10815 176
Width: 720
Flags: HW
HStem: 30 100<272 448> 30 62<93 134.931 585.069 627> 508 62<101 134.925 272.075 306 414 447.925 585.075 619>
VStem: 135 137<130 501.106> 448 137<130 501.106>
LayerCount: 2
Fore
SplineSet
101 570 m 1x78
 306 570 l 1
 317 508 l 1
 298 503 272 496 272 485 c 2
 272 130 l 1
 448 130 l 1xb8
 448 485 l 2
 448 496 422 503 403 508 c 1
 414 570 l 1
 619 570 l 1
 630 508 l 1
 611 503 585 496 585 485 c 2
 585 115 l 2
 585 104 609 97 627 92 c 1
 630 30 l 1
 90 30 l 1
 93 92 l 1
 111 97 135 104 135 115 c 2
 135 485 l 2
 135 496 109 503 90 508 c 1
 101 570 l 1x78
EndSplineSet
EndChar

StartChar: uni2A3F.sf
Encoding: 177 -1 177
Width: 720
Flags: HW
HStem: 30 133<90 140 273 447 580 630>
VStem: 140 133<163 570> 447 133<163 570>
LayerCount: 2
Fore
SplineSet
140 570 m 1
 273 570 l 1
 273 163 l 1
 447 163 l 1
 447 570 l 1
 580 570 l 1
 580 163 l 1
 630 163 l 1
 630 30 l 1
 90 30 l 1
 90 163 l 1
 140 163 l 1
 140 570 l 1
EndSplineSet
EndChar

StartChar: integral.small
Encoding: 178 -1 178
Width: 482
Flags: HW
HStem: -2 113<115 163.428> 645 110<314.556 384.603>
VStem: 174 133<117.034 638.598>
LayerCount: 2
Fore
SplineSet
410 746 m 1
 381 637 l 1
 370 642 357 645 345 645 c 0
 321 645 307 620 307 593 c 2
 307 168 l 2
 307 73 230 -2 138 -2 c 0
 130 -2 123 -1 115 0 c 1
 100 111 l 1
 137 111 l 2
 162 111 174 140 174 168 c 2
 174 593 l 2
 174 686 256 755 350 755 c 0
 355 755 383 755 410 746 c 1
EndSplineSet
EndChar

StartChar: uni2713
Encoding: 179 10003 179
Width: 940
Flags: HW
HStem: 0 21G<210.262 386> 721 33<817.122 844>
LayerCount: 2
Fore
SplineSet
90 267 m 1
 205 333 l 1
 291 157 l 1
 406 378 530 599 721 759 c 0
 731 768 743 771 755 771 c 0
 783 771 814 754 844 754 c 1
 850 721 l 1
 827 712 805 699 786 682 c 0
 572 503 452 245 320 0 c 1
 220 0 l 1
 90 267 l 1
EndSplineSet
EndChar

StartChar: uni21AF
Encoding: 180 8623 180
Width: 640
Flags: HW
HStem: 530 20G<475.556 540.509>
LayerCount: 2
Fore
SplineSet
189 -111 m 1
 92 98 l 1
 182 140 l 1
 207 86 l 1
 315 383 l 1
 150 339 l 1
 388 942 l 1
 529 891 l 1
 349 496 l 1
 550 550 l 1
 317 59 l 1
 355 77 l 1
 398 -13 l 1
 189 -111 l 1
EndSplineSet
EndChar

StartChar: uni2662
Encoding: 181 9826 181
Width: 780
Flags: HW
HStem: 0 21G<345 435> 687 20G<345 435>
LayerCount: 2
Fore
SplineSet
390 0 m 1
 300 126 200 245 90 354 c 1
 200 462 300 581 390 707 c 1
 480 581 580 462 690 354 c 1
 580 245 480 126 390 0 c 1
390 155 m 1
 440 226 497 292 559 354 c 1
 497 415 440 481 390 552 c 1
 340 481 283 415 221 354 c 1
 283 292 340 226 390 155 c 1
EndSplineSet
EndChar

StartChar: diamond
Encoding: 182 9830 182
Width: 780
Flags: HW
HStem: 0 21G<345 435> 687 20G<345 435>
LayerCount: 2
Fore
SplineSet
390 0 m 1
 300 126 200 245 90 354 c 1
 200 462 300 581 390 707 c 1
 480 581 580 462 690 354 c 1
 580 245 480 126 390 0 c 1
EndSplineSet
EndChar

StartChar: uni2661
Encoding: 183 9825 183
Width: 840
Flags: HW
HStem: 0 21G<358.5 481.5> 687 20G<214 293.5 546.5 626>
VStem: 90 660<415.219 614.034>
LayerCount: 2
Fore
SplineSet
420 0 m 1
 297 176 90 312 90 530 c 0
 90 627 166 707 262 707 c 0
 325 707 375 663 420 619 c 1
 465 663 515 707 578 707 c 0
 674 707 750 627 750 530 c 0
 750 312 543 176 420 0 c 1
EndSplineSet
EndChar

StartChar: heart
Encoding: 184 9829 184
Width: 840
Flags: HW
HStem: 0 21G<358.5 481.5> 687 20G<214 293.5 546.5 626>
VStem: 90 660<415.219 614.034>
LayerCount: 2
Fore
SplineSet
420 0 m 1
 297 176 90 312 90 530 c 0
 90 627 166 707 262 707 c 0
 325 707 375 663 420 619 c 1
 465 663 515 707 578 707 c 0
 674 707 750 627 750 530 c 0
 750 312 543 176 420 0 c 1
EndSplineSet
EndChar

StartChar: spade
Encoding: 185 9824 185
Width: 780
Flags: HW
HStem: 0 21G<300 480> 687 20G<345.5 434.5>
VStem: 89 602<195.731 376.681>
LayerCount: 2
Fore
SplineSet
552 117 m 0
 492 117 461 158 450 178 c 1
 480 0 l 1
 300 0 l 1
 330 178 l 1
 299 124 250 117 228 117 c 0
 153 117 89 188 89 284 c 0
 89 464 301 553 390 707 c 1
 479 553 691 464 691 284 c 0
 691 188 627 117 552 117 c 0
EndSplineSet
EndChar

StartChar: club
Encoding: 186 9827 186
Width: 840
Flags: HW
HStem: 0 21G<330 510> 687 20G<374 466>
VStem: 90 660<214.964 376.518> 255 330<459.358 624.518>
LayerCount: 2
Fore
SplineSet
585 459 m 0xd0
 677 459 750 386 750 294 c 0xe0
 750 202 674 129 585 129 c 0
 549 129 514 141 485 163 c 1
 510 0 l 1
 330 0 l 1
 355 163 l 1
 326 141 291 129 255 129 c 0xd0
 166 129 90 202 90 294 c 0xe0
 90 386 163 459 255 459 c 0
 263 459 270 458 278 457 c 1
 263 482 255 512 255 542 c 0
 255 634 328 707 420 707 c 0
 512 707 585 634 585 542 c 0
 585 512 577 482 562 457 c 1
 570 458 577 459 585 459 c 0xd0
EndSplineSet
EndChar

StartChar: uni2720
Encoding: 187 10016 187
Width: 930
Flags: HW
HStem: 250 100<365 415 515 565>
VStem: 415 100<200 250 350 400>
LayerCount: 2
Fore
SplineSet
653 675 m 1
 515 400 l 1
 515 350 l 1
 565 350 l 1
 840 488 l 1
 840 112 l 1
 565 250 l 1
 515 250 l 1
 515 200 l 1
 653 -75 l 1
 278 -75 l 1
 415 200 l 1
 415 250 l 1
 365 250 l 1
 90 112 l 1
 90 488 l 1
 365 350 l 1
 415 350 l 1
 415 400 l 1
 278 675 l 1
 653 675 l 1
EndSplineSet
EndChar

StartChar: uni2721
Encoding: 188 10017 188
Width: 930
Flags: HW
HStem: 84 79<229 294 432 498 636 701> 437 79<229 294 432 498 636 701>
LayerCount: 2
Fore
SplineSet
294 163 m 1
 261 219 l 1
 229 163 l 1
 294 163 l 1
669 219 m 1
 636 163 l 1
 701 163 l 1
 669 219 l 1
498 516 m 1
 465 573 l 1
 432 516 l 1
 498 516 l 1
622 300 m 1
 543 437 l 1
 387 437 l 1
 308 300 l 1
 387 163 l 1
 543 163 l 1
 622 300 l 1
669 381 m 1
 701 437 l 1
 636 437 l 1
 669 381 l 1
294 437 m 1
 229 437 l 1
 261 381 l 1
 294 437 l 1
465 -133 m 1
 340 84 l 1
 90 84 l 1
 215 300 l 1
 90 516 l 1
 340 516 l 1
 465 733 l 1
 590 516 l 1
 840 516 l 1
 715 300 l 1
 840 84 l 1
 590 84 l 1
 465 -133 l 1
465 27 m 1
 498 84 l 1
 432 84 l 1
 465 27 l 1
EndSplineSet
EndChar

StartChar: uni2314
Encoding: 189 8980 189
Width: 720
Flags: HW
HStem: 464 100<250.762 469.628>
LayerCount: 2
Fore
SplineSet
497 429 m 1
 476 441 427 464 360 464 c 0
 335 464 278 460 223 429 c 1
 360 183 l 1
 497 429 l 1
589 492 m 1
 633 467 l 1
 389 30 l 1
 331 30 l 1
 87 467 l 1
 131 492 l 1
 174 516 l 2
 232 548 296 564 360 564 c 0
 424 564 488 548 546 516 c 2
 589 492 l 1
EndSplineSet
EndChar

StartChar: universal
Encoding: 190 8704 190
Width: 780
Flags: HW
HStem: 0 21G<293.173 486.856> 374 100<309 471> 687 20G<93 217.837 562.163 688>
LayerCount: 2
Fore
SplineSet
471 374 m 1
 309 374 l 1
 390 99 l 1
 471 374 l 1
93 707 m 1
 212 707 l 1
 280 474 l 1
 500 474 l 1
 568 707 l 1
 688 707 l 1
 481 0 l 1
 299 0 l 1
 93 707 l 1
EndSplineSet
EndChar

StartChar: existential
Encoding: 191 8707 191
Width: 660
Flags: HW
HStem: 0 100<90 445> 304 100<142 445> 607 100<90 445>
VStem: 445 125<100 304 404 607>
LayerCount: 2
Fore
SplineSet
90 0 m 1
 90 100 l 1
 445 100 l 1
 445 304 l 1
 142 304 l 1
 142 404 l 1
 445 404 l 1
 445 607 l 1
 90 607 l 1
 90 707 l 1
 570 707 l 1
 570 0 l 1
 90 0 l 1
EndSplineSet
EndChar

StartChar: uni2204
Encoding: 192 8708 192
Width: 660
Flags: HW
HStem: 0 100<90 157 277 445> 304 100<142 238 359 445> 607 100<90 320 440 445>
VStem: 445 125<100 304 404 607>
LayerCount: 2
Fore
SplineSet
359 404 m 1
 445 404 l 1
 445 607 l 1
 413 607 l 1
 359 404 l 1
277 100 m 1
 445 100 l 1
 445 304 l 1
 332 304 l 1
 277 100 l 1
385 850 m 1
 472 826 l 1
 440 707 l 1
 570 707 l 1
 570 0 l 1
 445 0 l 1
 250 0 l 1
 212 -143 l 1
 125 -119 l 1
 157 -0 l 1
 90 0 l 1
 90 100 l 1
 184 100 l 1
 238 304 l 1
 142 304 l 1
 142 404 l 1
 265 404 l 1
 320 607 l 1
 90 607 l 1
 90 707 l 1
 347 707 l 1
 385 850 l 1
EndSplineSet
EndChar

StartChar: uni2132
Encoding: 193 8498 193
Width: 660
Flags: HW
HStem: 0 100<90 445> 304 100<142 445> 687 20G<445 570>
VStem: 445 125<100 304 404 707>
LayerCount: 2
Fore
SplineSet
90 0 m 1
 90 100 l 1
 445 100 l 1
 445 304 l 1
 142 304 l 1
 142 404 l 1
 445 404 l 1
 445 707 l 1
 570 707 l 1
 570 0 l 1
 90 0 l 1
EndSplineSet
EndChar

StartChar: uni2141
Encoding: 194 8513 194
Width: 780
Flags: HW
HStem: -12 125<221.449 423.797> 246 100<215 330> 583 124<206.169 414.704>
VStem: 90 125<128.844 246> 565 125<254.357 445.02>
LayerCount: 2
Fore
SplineSet
565 354 m 0
 565 486 444 583 311 583 c 0
 258 583 207 568 162 538 c 1
 90 640 l 1
 156 684 233 707 311 707 c 0
 511 707 690 556 690 354 c 0
 690 152 530 -12 330 -12 c 0
 244 -12 159 15 90 67 c 1
 90 346 l 1
 330 346 l 1
 330 246 l 1
 215 246 l 1
 215 137 l 1
 251 121 290 113 330 113 c 0
 461 113 565 221 565 354 c 0
EndSplineSet
EndChar

StartChar: uni2201
Encoding: 195 8705 195
Width: 600
Flags: HW
HStem: 0 125<242.664 357.336> 582 125<242.664 357.336>
VStem: 90 125<155.976 551.024> 385 125<155.976 208 499 551.024>
LayerCount: 2
Fore
SplineSet
510 499 m 1
 385 499 l 1
 385 545 347 582 300 582 c 0
 253 582 215 545 215 499 c 2
 215 208 l 2
 215 162 253 125 300 125 c 0
 347 125 385 162 385 208 c 1
 510 208 l 1
 510 93 416 0 300 0 c 0
 184 0 90 93 90 208 c 2
 90 499 l 2
 90 614 184 707 300 707 c 0
 416 707 510 614 510 499 c 1
EndSplineSet
EndChar

StartChar: uni266D
Encoding: 196 9837 196
Width: 580
Flags: HW
HStem: 446 100<234.322 331.895> 734 20G<90 190>
VStem: 90 100<142 402.547 514 754> 357 133<284.523 421.159>
LayerCount: 2
Fore
SplineSet
190 378 m 1
 190 142 l 1
 269 197 357 257 357 352 c 0
 357 400 333 446 290 446 c 0
 248 446 217 411 190 378 c 1
90 754 m 1
 190 754 l 1
 190 514 l 1
 220 534 253 546 290 546 c 0
 399 546 490 460 490 352 c 0
 490 230 258 67 90 -50 c 1
 90 754 l 1
EndSplineSet
EndChar

StartChar: uni266E
Encoding: 197 9838 197
Width: 580
Flags: HW
HStem: -220 21G<390 490> 0 21G<90 165> 526 20G<415 490> 734 20G<90 190>
VStem: 90 100<177 316 466 754> 390 100<-220 80 230 369>
LayerCount: 2
Fore
SplineSet
390 80 m 1
 90 0 l 1
 90 754 l 1
 190 754 l 1
 190 466 l 1
 490 546 l 1
 490 -220 l 1
 390 -220 l 1
 390 80 l 1
390 230 m 1
 390 369 l 1
 190 316 l 1
 190 177 l 1
 390 230 l 1
EndSplineSet
EndChar

StartChar: uni266F
Encoding: 198 9839 198
Width: 580
Flags: HW
HStem: -220 21G<140 240> 0 21G<90 140> 526 20G<440 490> 734 20G<340 440>
VStem: 140 100<-220 13 190 302 479 681> 340 100<-147 67 244 356 533 754>
LayerCount: 2
Fore
SplineSet
340 217 m 1
 340 356 l 1
 240 329 l 1
 240 190 l 1
 340 217 l 1
440 -147 m 1
 340 -147 l 1
 340 67 l 1
 240 40 l 1
 240 -220 l 1
 140 -220 l 1
 140 13 l 1
 90 0 l 1
 90 150 l 1
 140 163 l 1
 140 302 l 1
 90 289 l 1
 90 439 l 1
 140 452 l 1
 140 681 l 1
 240 681 l 1
 240 479 l 1
 340 506 l 1
 340 754 l 1
 440 754 l 1
 440 533 l 1
 490 546 l 1
 490 396 l 1
 440 383 l 1
 440 244 l 1
 490 257 l 1
 490 107 l 1
 440 94 l 1
 440 -147 l 1
EndSplineSet
EndChar

StartChar: aleph
Encoding: 199 8501 199
Width: 820
Flags: HW
HStem: 0 21G<90 240> 689 20G<597 730>
VStem: 90 150<0 226.727> 597 133<548.272 705>
LayerCount: 2
Fore
SplineSet
240 0 m 1
 90 0 l 1
 90 168 119 339 212 476 c 1
 161 538 118 605 90 681 c 1
 231 733 l 1
 283 590 387 480 489 368 c 1
 561 464 597 583 597 705 c 1
 730 709 l 1
 730 549 676 395 574 273 c 1
 638 197 696 117 730 23 c 1
 605 -23 l 1
 546 138 417 255 299 379 c 1
 241 268 240 130 240 0 c 1
EndSplineSet
EndChar

StartChar: uni2136
Encoding: 200 8502 200
Width: 820
Flags: HW
HStem: 0 145<109 525 650 711> 562 145<169 497.3>
VStem: 525 125<145 531.959>
LayerCount: 2
Fore
SplineSet
169 707 m 1
 401 707 l 2
 581 707 650 648 650 471 c 2
 650 145 l 1
 749 145 l 1
 711 0 l 1
 71 0 l 1
 109 145 l 1
 525 145 l 1
 525 471 l 2
 525 548 485 562 401 562 c 2
 131 562 l 1
 169 707 l 1
EndSplineSet
EndChar

StartChar: uni2137
Encoding: 201 8503 201
Width: 640
Flags: HW
HStem: 0 131<102 238.116>
LayerCount: 2
Fore
SplineSet
102 131 m 1
 148 131 l 2
 171 131 190 125 205 125 c 0
 216 125 224 128 231 140 c 2
 348 343 l 1
 344 386 340 429 334 471 c 0
 330 500 308 521 283 536 c 2
 168 602 l 1
 243 732 l 1
 358 666 l 1
 513 574 436 269 550 0 c 1
 417 0 l 1
 393 57 378 117 368 178 c 1
 317 90 l 2
 283 30 239 0 148 0 c 2
 78 0 l 1
 102 131 l 1
EndSplineSet
EndChar

StartChar: uni2138
Encoding: 202 8504 202
Width: 760
Flags: HW
HStem: 0 21G<429 554> 562 145<109 429 554 651>
VStem: 429 125<0 562>
LayerCount: 2
Fore
SplineSet
109 707 m 1
 689 707 l 1
 651 562 l 1
 554 562 l 1
 554 0 l 1
 429 0 l 1
 429 562 l 1
 71 562 l 1
 109 707 l 1
EndSplineSet
EndChar

StartChar: weierstrass
Encoding: 203 8472 203
Width: 740
Flags: HW
HStem: -220 100<92.6102 145.845> 0 100<357.554 495.095> 419 100<387.555 554.91> 526 20G<141 188.356>
VStem: -8 97<-117.042 11.3605> 564 138<244.749 405.816>
LayerCount: 2
Fore
SplineSet
103 13 m 1
 94 -26 89 -54 89 -73 c 0
 89 -100 97 -120 124 -120 c 0
 125 -120 152 -114 152 -83 c 0
 152 -63 140 -33 103 13 c 1
-8 -72 m 0
 -8 -45 -3 19 35 118 c 1
 26 144 23 173 23 202 c 0
 23 335 101 546 181 546 c 1
 213 459 l 1
 197 459 176 379 168 342 c 1
 260 448 379 519 510 519 c 0
 620 519 702 437 702 318 c 0
 702 159 558 0 400 0 c 0
 374 0 349 4 325 11 c 1
 363 109 l 1
 381 103 401 100 421 100 c 0
 453 100 489 108 510 135 c 0
 527 157 564 341 564 374 c 0
 564 381 561 419 489 419 c 0
 351 419 233 312 161 172 c 1
 192 98 283 54 283 -41 c 0
 283 -131 196 -220 103 -220 c 0
 26 -220 -8 -154 -8 -72 c 0
EndSplineSet
EndChar
